<svg id="Layer_1" data-name="Layer 1" xmlns="http://www.w3.org/2000/svg" width="215.58" height="64.25" viewBox="0 0 215.58 64.25"><defs><style>.cls-1{fill:#010101;}.cls-2,.cls-4{fill:none;stroke-miterlimit:10;}.cls-2{stroke:#010101;}.cls-3{fill:#231f20;}.cls-4{stroke:#231f20;}</style></defs><title>barker-logo</title><path class="cls-1" d="M20,26.77a4.64,4.64,0,0,0,1.25-.17,3.48,3.48,0,0,0,1.09-.51,2.69,2.69,0,0,0,.77-0.83,2.19,2.19,0,0,0,.29-1.14,2.43,2.43,0,0,0-.4-1.38,4.83,4.83,0,0,0-1.05-1.11,10,10,0,0,0-1.49-1l-1.71-.89q-0.87-.45-1.71-0.94a8.57,8.57,0,0,1-1.49-1.09,5.15,5.15,0,0,1-1.05-1.35,3.58,3.58,0,0,1-.4-1.72,4.45,4.45,0,0,1,.36-1.81,4,4,0,0,1,1.07-1.44,5.13,5.13,0,0,1,1.73-1,7.39,7.39,0,0,1,2.36-.35,6.36,6.36,0,0,1,3.8,1,5.61,5.61,0,0,1,2,2.92L24,14.72a6.71,6.71,0,0,0-.65-1.42,4.48,4.48,0,0,0-.95-1.11,4,4,0,0,0-1.27-.71,4.91,4.91,0,0,0-1.62-.25,4,4,0,0,0-1.4.22,3.06,3.06,0,0,0-1,.58,2.4,2.4,0,0,0-.6.81,2.29,2.29,0,0,0-.2.93A2,2,0,0,0,16.71,15a5.24,5.24,0,0,0,1.08,1.05,11.7,11.7,0,0,0,1.53,1l1.76,0.93q0.89,0.47,1.76,1A9.35,9.35,0,0,1,24.37,20a5.47,5.47,0,0,1,1.08,1.33A3.2,3.2,0,0,1,25.86,23a4.69,4.69,0,0,1-.38,1.89,4.28,4.28,0,0,1-1.15,1.54,5.61,5.61,0,0,1-1.9,1,8.31,8.31,0,0,1-2.64.38,8.1,8.1,0,0,1-2.18-.27,5.54,5.54,0,0,1-1.7-.78,5,5,0,0,1-1.26-1.25,7.08,7.08,0,0,1-.86-1.68l1.53-.63A5.7,5.7,0,0,0,16,24.73a4.75,4.75,0,0,0,1.05,1.11,4.49,4.49,0,0,0,1.34.69A5.05,5.05,0,0,0,20,26.77Z" transform="translate(-2 -2.58)"/><path class="cls-1" d="M34.55,10.51h2.91l6.59,13h0.13l6.47-13h2.86V27.45H50.65V13.58h-0.1L43.61,27.45H43L36,13.67H35.8V27.45H34.55V10.51Z" transform="translate(-2 -2.58)"/><path class="cls-1" d="M63.24,10.51h2.85V27.45H63.24V10.51Z" transform="translate(-2 -2.58)"/><path class="cls-1" d="M75.82,10.51h2.85V26.36h8.52v1.09H75.82V10.51Z" transform="translate(-2 -2.58)"/><path class="cls-1" d="M106.81,10.51v1.09H97.89v6.06h6v1.09h-6v7.6h8.93v1.09H95V10.51h11.77Z" transform="translate(-2 -2.58)"/><path class="cls-1" d="M116,2.58v35H217v-35H116Zm23,10h-9v6h6v1h-6v8h9v1H127v-17h12v1Zm23,17h-1l-12-14h0v13h-1v-17h1.23l11.1,13H160v-13h2v18Zm16.35,0h-0.73l-8.26-18h3l6.38,13.47,5.95-13.47H186ZM201,20.38v8.2h-2V20.65l-7.4-9.06h2.92l5.87,8.58,5.85-8.58h1.54Z" transform="translate(-2 -2.58)"/><rect class="cls-2" x="0.5" y="0.5" width="214" height="34"/><path class="cls-3" d="M69.75,65.35H66.9V56.62h2.39q2.67,0,2.67,2.24a1.89,1.89,0,0,1-1.26,2A2,2,0,0,1,72.41,63Q72.41,65.35,69.75,65.35ZM68,60.46h1.33a1.66,1.66,0,0,0,1.23-.4A1.49,1.49,0,0,0,70.91,59a1.51,1.51,0,0,0-.39-1.1,1.65,1.65,0,0,0-1.23-.41H68v3Zm0,4.06h1.78A1.6,1.6,0,0,0,71,64.09a1.65,1.65,0,0,0,.39-1.16A1.7,1.7,0,0,0,71,61.75a1.57,1.57,0,0,0-1.23-.44H68v3.21Z" transform="translate(-2 -2.58)"/><path class="cls-3" d="M75,65.35h-1V58.51h0.61l0.37,1.22a2.86,2.86,0,0,1,2.45-1.39v0.95A2.75,2.75,0,0,0,75,60.65v4.7Z" transform="translate(-2 -2.58)"/><path class="cls-3" d="M82.31,58.8A2.24,2.24,0,0,1,83,60.74v4.62H82.34l-0.26-1.06a3.41,3.41,0,0,1-2.52,1.23A1.7,1.7,0,0,1,78.22,65a1.88,1.88,0,0,1-.42-1.29,1.77,1.77,0,0,1,.51-1.32,3.59,3.59,0,0,1,1.91-.73L82,61.42V60.74a1.59,1.59,0,0,0-.38-1.22,1.5,1.5,0,0,0-1-.33A1.44,1.44,0,0,0,79,60.46l-0.84-.25a2.33,2.33,0,0,1,.8-1.37,2.57,2.57,0,0,1,1.66-.49A2.77,2.77,0,0,1,82.31,58.8Zm-2.46,5.93A3,3,0,0,0,82,63.57V62.14l-1.69.29a2.22,2.22,0,0,0-1.17.48,1.1,1.1,0,0,0-.32.8,1.06,1.06,0,0,0,.25.75A1,1,0,0,0,79.84,64.73Z" transform="translate(-2 -2.58)"/><path class="cls-3" d="M86.72,65.52q-2.2,0-2.2-3.59t2.67-3.59a4.35,4.35,0,0,1,1.89.47V56.29l1-.12v9.19H89.42l-0.3-1A3.2,3.2,0,0,1,86.72,65.52Zm0.33-.84a2.65,2.65,0,0,0,2-1.15V59.63a3.53,3.53,0,0,0-1.69-.47,1.51,1.51,0,0,0-1.42.73,4.14,4.14,0,0,0-.42,2Q85.55,64.68,87.05,64.68Z" transform="translate(-2 -2.58)"/><path class="cls-3" d="M98.36,65.35H95.51V56.62H97.9q2.67,0,2.67,2.24a1.89,1.89,0,0,1-1.26,2A2,2,0,0,1,101,63Q101,65.35,98.36,65.35Zm-1.79-4.89h1.33a1.66,1.66,0,0,0,1.23-.4A1.49,1.49,0,0,0,99.52,59a1.51,1.51,0,0,0-.39-1.1,1.65,1.65,0,0,0-1.23-.41H96.56v3Zm0,4.06h1.78a1.6,1.6,0,0,0,1.23-.43,1.65,1.65,0,0,0,.39-1.16,1.7,1.7,0,0,0-.39-1.17,1.57,1.57,0,0,0-1.23-.44H96.56v3.21Z" transform="translate(-2 -2.58)"/><path class="cls-3" d="M106.42,58.8a2.24,2.24,0,0,1,.72,1.94v4.62h-0.68l-0.26-1.06a3.41,3.41,0,0,1-2.52,1.23,1.7,1.7,0,0,1-1.33-.48,1.88,1.88,0,0,1-.42-1.29,1.77,1.77,0,0,1,.51-1.32,3.59,3.59,0,0,1,1.91-.73l1.78-.29V60.74a1.59,1.59,0,0,0-.38-1.22,1.5,1.5,0,0,0-1-.33,1.44,1.44,0,0,0-1.57,1.28l-0.84-.25a2.33,2.33,0,0,1,.8-1.37,2.57,2.57,0,0,1,1.66-.49A2.77,2.77,0,0,1,106.42,58.8ZM104,64.73a3,3,0,0,0,2.15-1.16V62.14l-1.69.29a2.22,2.22,0,0,0-1.17.48,1.1,1.1,0,0,0-.32.8,1.06,1.06,0,0,0,.25.75A1,1,0,0,0,104,64.73Z" transform="translate(-2 -2.58)"/><path class="cls-3" d="M110.28,65.35h-1V58.51h0.61l0.37,1.22a2.86,2.86,0,0,1,2.45-1.39v0.95a2.75,2.75,0,0,0-2.4,1.36v4.7Z" transform="translate(-2 -2.58)"/><path class="cls-3" d="M114.78,65.35h-1V56.29l1-.12v5.11h0.94l1.93-2.76h1.14l-2.29,3.23,2.5,3.61h-1.14L115.58,62h-0.8v3.31Z" transform="translate(-2 -2.58)"/><path class="cls-3" d="M122.23,65.52a2.62,2.62,0,0,1-2.24-.89,4.47,4.47,0,0,1-.67-2.7q0-3.59,2.86-3.59T125,61.79V62h-4.66a3.79,3.79,0,0,0,.43,2,1.64,1.64,0,0,0,1.46.62q1.7,0,1.82-1.37l0.85,0Q124.67,65.52,122.23,65.52Zm1.29-5.79a1.53,1.53,0,0,0-1.33-.54,1.55,1.55,0,0,0-1.34.56,3,3,0,0,0-.49,1.54H124A2.92,2.92,0,0,0,123.52,59.73Z" transform="translate(-2 -2.58)"/><path class="cls-3" d="M127.59,65.35h-1V58.51h0.61l0.37,1.22A2.86,2.86,0,0,1,130,58.35v0.95a2.75,2.75,0,0,0-2.4,1.36v4.7Z" transform="translate(-2 -2.58)"/><path class="cls-3" d="M130.59,65.14a1.64,1.64,0,0,1-.08-0.47,1.4,1.4,0,0,1,0-.32,0.47,0.47,0,0,1,.17-0.25,0.65,0.65,0,0,1,.42-0.12,0.67,0.67,0,0,1,.43.12,0.47,0.47,0,0,1,.18.25,2.25,2.25,0,0,1,0,.44,1.86,1.86,0,0,1-.16.71,2.28,2.28,0,0,1-.42.68,5.18,5.18,0,0,1-.69.67l-0.31-.36,0.25-.25a1,1,0,0,0,.24-0.69A1.56,1.56,0,0,0,130.59,65.14Z" transform="translate(-2 -2.58)"/><path class="cls-3" d="M136.4,58.21h2.17a2.39,2.39,0,0,1,2.28,1.06,3.5,3.5,0,0,1,.41,1.11,7.17,7.17,0,0,1,.11,1.33,10,10,0,0,1-.06,1.23,4.1,4.1,0,0,1-.25,1,2.24,2.24,0,0,1-.49.78,2.75,2.75,0,0,1-2,.67H136.4V58.21Zm2.13,0.69h-1.27v5.77h1.27a1.78,1.78,0,0,0,1.43-.55,3.76,3.76,0,0,0,.55-2.34,3.76,3.76,0,0,0-.55-2.34A1.78,1.78,0,0,0,138.54,58.9Z" transform="translate(-2 -2.58)"/><path class="cls-3" d="M143,58.21h2.17a2.39,2.39,0,0,1,2.28,1.06,3.5,3.5,0,0,1,.41,1.11A7.17,7.17,0,0,1,148,61.7a10,10,0,0,1-.06,1.23,4.1,4.1,0,0,1-.25,1,2.24,2.24,0,0,1-.49.78,2.75,2.75,0,0,1-2,.67H143V58.21Zm2.13,0.69h-1.27v5.77h1.27a1.78,1.78,0,0,0,1.43-.55,3.76,3.76,0,0,0,.55-2.34,3.76,3.76,0,0,0-.55-2.34A1.78,1.78,0,0,0,145.12,58.9Z" transform="translate(-2 -2.58)"/><path class="cls-3" d="M153.42,62.19a1.76,1.76,0,0,1,.43,1.3,1.87,1.87,0,0,1-.61,1.44,3.15,3.15,0,0,1-3.47.08,2.22,2.22,0,0,1-.68-1.38l0.71-.13a1.41,1.41,0,0,0,1.59,1.29q1.6,0,1.6-1.26a1,1,0,0,0-.29-0.81,2.45,2.45,0,0,0-1-.45l-0.65-.19a3.11,3.11,0,0,1-1.42-.7,1.81,1.81,0,0,1-.41-1.3,1.92,1.92,0,0,1,.59-1.44,2.36,2.36,0,0,1,1.71-.57,2,2,0,0,1,2.28,1.86l-0.71.13a1.35,1.35,0,0,0-1.49-1.29q-1.52,0-1.52,1.26a1.11,1.11,0,0,0,.27.82,2.07,2.07,0,0,0,.92.45L152,61.48A3.43,3.43,0,0,1,153.42,62.19Z" transform="translate(-2 -2.58)"/><path class="cls-1" d="M3.72,46.43a2.59,2.59,0,0,0,.15.93,2,2,0,0,0,.43.69,1.82,1.82,0,0,0,.64.43,2.14,2.14,0,0,0,.8.15,1.24,1.24,0,0,0,.5-0.1,1.9,1.9,0,0,0,.45-0.26,2.2,2.2,0,0,0,.37-0.36,2.31,2.31,0,0,0,.27-0.41l0.34,0.22a3.24,3.24,0,0,1-.36.48,2.39,2.39,0,0,1-.48.4,2.48,2.48,0,0,1-.61.28,2.56,2.56,0,0,1-.76.11,3.06,3.06,0,0,1-.76-0.09A2.86,2.86,0,0,1,4,48.63a2.46,2.46,0,0,1-.54-0.4,2.51,2.51,0,0,1-.4-0.52,2.55,2.55,0,0,1-.34-1.28,2.55,2.55,0,0,1,.35-1.28,2.43,2.43,0,0,1,.41-0.53,2.58,2.58,0,0,1,.55-0.41,2.79,2.79,0,0,1,.67-0.27,3.08,3.08,0,0,1,.78-0.1,2.35,2.35,0,0,1,.72.11,2.55,2.55,0,0,1,.6.28,2.4,2.4,0,0,1,.48.4,3.08,3.08,0,0,1,.36.48l-0.35.24a2.47,2.47,0,0,0-.69-0.87,1.43,1.43,0,0,0-.87-0.28,2,2,0,0,0-.8.16,1.87,1.87,0,0,0-.64.44,2.09,2.09,0,0,0-.43.7A2.58,2.58,0,0,0,3.72,46.43Z" transform="translate(-2 -2.58)"/><path class="cls-1" d="M12.05,49a2.83,2.83,0,0,1-.73-0.09,2.77,2.77,0,0,1-.65-0.26,2.71,2.71,0,0,1-.55-0.41,2.52,2.52,0,0,1-.42-0.53,2.62,2.62,0,0,1-.27-0.62,2.49,2.49,0,0,1-.1-0.69,2.38,2.38,0,0,1,.1-0.68,2.55,2.55,0,0,1,.27-0.61,2.51,2.51,0,0,1,.42-0.51,2.71,2.71,0,0,1,.55-0.4,2.88,2.88,0,0,1,.65-0.25,2.9,2.9,0,0,1,2.11.25,2.69,2.69,0,0,1,.55.4,2.47,2.47,0,0,1,.42.51,2.54,2.54,0,0,1,.27.61,2.4,2.4,0,0,1,.09.68,2.51,2.51,0,0,1-.09.69,2.61,2.61,0,0,1-.27.62,2.48,2.48,0,0,1-.42.53,2.7,2.7,0,0,1-.55.41,2.79,2.79,0,0,1-.65.26A2.83,2.83,0,0,1,12.05,49Zm0-.25a1.53,1.53,0,0,0,.74-0.18,1.58,1.58,0,0,0,.54-0.49,2.29,2.29,0,0,0,.33-0.75,3.66,3.66,0,0,0,.11-0.94,3.52,3.52,0,0,0-.11-0.93,2.22,2.22,0,0,0-.33-0.73,1.54,1.54,0,0,0-.54-0.47,1.57,1.57,0,0,0-.74-0.17,1.6,1.6,0,0,0-.76.17,1.52,1.52,0,0,0-.54.47,2.21,2.21,0,0,0-.33.73,3.62,3.62,0,0,0-.11.93,3.77,3.77,0,0,0,.11.94,2.28,2.28,0,0,0,.33.75A1.51,1.51,0,0,0,12.05,48.74Z" transform="translate(-2 -2.58)"/><path class="cls-1" d="M18,48.67a1.35,1.35,0,0,0,.36,0,1,1,0,0,0,.32-0.15,0.8,0.8,0,0,0,.22-0.24A0.63,0.63,0,0,0,19,47.9a0.7,0.7,0,0,0-.12-0.4,1.45,1.45,0,0,0-.3-0.32,2.81,2.81,0,0,0-.43-0.28l-0.5-.26-0.5-.27a2.55,2.55,0,0,1-.43-0.32,1.49,1.49,0,0,1-.3-0.39,1,1,0,0,1-.12-0.5,1.29,1.29,0,0,1,.11-0.52,1.16,1.16,0,0,1,.31-0.42,1.5,1.5,0,0,1,.5-0.28,2.15,2.15,0,0,1,.68-0.1,1.83,1.83,0,0,1,1.1.29,1.62,1.62,0,0,1,.58.84l-0.42.19A1.93,1.93,0,0,0,19,44.77a1.33,1.33,0,0,0-.27-0.32,1.18,1.18,0,0,0-.37-0.21,1.42,1.42,0,0,0-.47-0.07,1.16,1.16,0,0,0-.41.07,0.85,0.85,0,0,0-.29.17,0.7,0.7,0,0,0-.17.24,0.67,0.67,0,0,0-.06.27,0.58,0.58,0,0,0,.12.35,1.52,1.52,0,0,0,.31.3,3.21,3.21,0,0,0,.44.28l0.51,0.27,0.51,0.29a2.82,2.82,0,0,1,.44.32,1.6,1.6,0,0,1,.31.39,0.92,0.92,0,0,1,.12.47,1.36,1.36,0,0,1-.11.55,1.25,1.25,0,0,1-.33.45,1.63,1.63,0,0,1-.55.3,2.42,2.42,0,0,1-.77.11,2.34,2.34,0,0,1-.63-0.08,1.61,1.61,0,0,1-.49-0.23,1.47,1.47,0,0,1-.36-0.36,2.1,2.1,0,0,1-.25-0.49l0.44-.18a1.63,1.63,0,0,0,.21.43,1.34,1.34,0,0,0,.3.32,1.3,1.3,0,0,0,.39.2A1.45,1.45,0,0,0,18,48.67Z" transform="translate(-2 -2.58)"/><path class="cls-1" d="M21.49,44h0.84l1.91,3.77h0L26.15,44H27v4.91H26.15v-4h0l-2,4H23.94l-2-4H21.85v4H21.49V44Z" transform="translate(-2 -2.58)"/><path class="cls-1" d="M32.49,44v0.32H29.9V46h1.73v0.32H29.9v2.2h2.59v0.32H29.08V44h3.41Z" transform="translate(-2 -2.58)"/><path class="cls-1" d="M38.17,44v0.32H36.4v4.59H35.57V44.28H33.79V44h4.38Z" transform="translate(-2 -2.58)"/><path class="cls-1" d="M39.8,44h0.82v4.91H39.8V44Z" transform="translate(-2 -2.58)"/><path class="cls-1" d="M43.47,46.43a2.6,2.6,0,0,0,.15.93,2,2,0,0,0,.43.69,1.82,1.82,0,0,0,.64.43,2.14,2.14,0,0,0,.8.15,1.25,1.25,0,0,0,.5-0.1,1.91,1.91,0,0,0,.45-0.26,2.22,2.22,0,0,0,.37-0.36,2.29,2.29,0,0,0,.27-0.41l0.35,0.22a3.3,3.3,0,0,1-.36.48,2.39,2.39,0,0,1-.48.4,2.47,2.47,0,0,1-.61.28,2.55,2.55,0,0,1-.76.11,3.06,3.06,0,0,1-.76-0.09,2.86,2.86,0,0,1-.66-0.26,2.46,2.46,0,0,1-.54-0.4,2.5,2.5,0,0,1-.4-0.52,2.55,2.55,0,0,1-.34-1.28,2.55,2.55,0,0,1,.35-1.28,2.43,2.43,0,0,1,.41-0.53,2.59,2.59,0,0,1,.55-0.41,2.79,2.79,0,0,1,.67-0.27,3.08,3.08,0,0,1,.78-0.1A2.35,2.35,0,0,1,46,44a2.55,2.55,0,0,1,.6.28,2.41,2.41,0,0,1,.48.4,3.12,3.12,0,0,1,.36.48l-0.36.24a2.46,2.46,0,0,0-.69-0.87,1.43,1.43,0,0,0-.87-0.28,2,2,0,0,0-.8.16,1.88,1.88,0,0,0-.65.44,2.09,2.09,0,0,0-.43.7A2.58,2.58,0,0,0,43.47,46.43Z" transform="translate(-2 -2.58)"/><path class="cls-1" d="M52.29,42.09h0.82v8.65H52.29V42.09Z" transform="translate(-2 -2.58)"/><path class="cls-1" d="M59.54,48.67a1.35,1.35,0,0,0,.36,0,1,1,0,0,0,.32-0.15,0.79,0.79,0,0,0,.22-0.24,0.63,0.63,0,0,0,.08-0.33,0.7,0.7,0,0,0-.12-0.4,1.45,1.45,0,0,0-.3-0.32,2.81,2.81,0,0,0-.43-0.28l-0.5-.26-0.5-.27a2.56,2.56,0,0,1-.43-0.32,1.49,1.49,0,0,1-.3-0.39,1,1,0,0,1-.12-0.5,1.3,1.3,0,0,1,.11-0.52,1.16,1.16,0,0,1,.31-0.42,1.5,1.5,0,0,1,.5-0.28,2.15,2.15,0,0,1,.68-0.1,1.83,1.83,0,0,1,1.1.29,1.62,1.62,0,0,1,.58.84l-0.42.19a1.94,1.94,0,0,0-.19-0.41,1.32,1.32,0,0,0-.28-0.32,1.17,1.17,0,0,0-.37-0.21,1.42,1.42,0,0,0-.47-0.07,1.16,1.16,0,0,0-.41.07,0.84,0.84,0,0,0-.29.17,0.7,0.7,0,0,0-.17.24,0.68,0.68,0,0,0-.06.27,0.58,0.58,0,0,0,.12.35,1.51,1.51,0,0,0,.31.3,3.21,3.21,0,0,0,.44.28l0.51,0.27,0.51,0.29a2.84,2.84,0,0,1,.44.32,1.6,1.6,0,0,1,.31.39,0.92,0.92,0,0,1,.12.47,1.36,1.36,0,0,1-.11.55,1.24,1.24,0,0,1-.33.45,1.63,1.63,0,0,1-.55.3,2.42,2.42,0,0,1-.77.11,2.33,2.33,0,0,1-.63-0.08,1.61,1.61,0,0,1-.49-0.23A1.46,1.46,0,0,1,58,48.32a2.1,2.1,0,0,1-.25-0.49l0.44-.18a1.64,1.64,0,0,0,.21.43,1.34,1.34,0,0,0,.3.32,1.29,1.29,0,0,0,.39.2A1.45,1.45,0,0,0,59.54,48.67Z" transform="translate(-2 -2.58)"/><path class="cls-1" d="M66.45,44v0.32H63.86V46h1.73v0.32H63.86v2.2h2.59v0.32H63V44h3.41Z" transform="translate(-2 -2.58)"/><path class="cls-1" d="M68.23,44h1.63a5.23,5.23,0,0,1,1.3.14,2.26,2.26,0,0,1,.91.45,2.33,2.33,0,0,1,.63.81,2.41,2.41,0,0,1,.21,1,2.51,2.51,0,0,1-.19,1,2.27,2.27,0,0,1-.55.8,2.59,2.59,0,0,1-.89.53,3.48,3.48,0,0,1-1.21.2H68.23V44Zm0.82,4.55h0.87a2.19,2.19,0,0,0,.78-0.14A1.78,1.78,0,0,0,71.35,48a1.9,1.9,0,0,0,.43-0.67,2.47,2.47,0,0,0,.16-0.91,2.27,2.27,0,0,0-.15-0.83,1.94,1.94,0,0,0-.41-0.65,1.89,1.89,0,0,0-.63-0.43,2.06,2.06,0,0,0-.8-0.15H69.05v4.19Z" transform="translate(-2 -2.58)"/><path class="cls-1" d="M76.54,43.85l2.31,5H78l-0.75-1.64h-2.1l-0.78,1.64H74l2.36-5h0.2Zm-1.24,3.06h1.81L76.22,45Z" transform="translate(-2 -2.58)"/><path class="cls-1" d="M83.74,44v0.32H82v4.59H81.14V44.28H79.36V44h4.38Z" transform="translate(-2 -2.58)"/><path class="cls-1" d="M85.36,44h0.82v4.91H85.36V44Z" transform="translate(-2 -2.58)"/><path class="cls-1" d="M90.78,49a2.83,2.83,0,0,1-.73-0.09,2.78,2.78,0,0,1-.65-0.26,2.7,2.7,0,0,1-.55-0.41,2.5,2.5,0,0,1-.42-0.53,2.62,2.62,0,0,1-.27-0.62,2.48,2.48,0,0,1-.1-0.69,2.37,2.37,0,0,1,.1-0.68,2.55,2.55,0,0,1,.27-0.61,2.49,2.49,0,0,1,.42-0.51,2.69,2.69,0,0,1,.55-0.4,2.88,2.88,0,0,1,.65-0.25,3,3,0,0,1,1.46,0,2.88,2.88,0,0,1,.65.25,2.69,2.69,0,0,1,.55.4,2.46,2.46,0,0,1,.42.51,2.54,2.54,0,0,1,.27.61,2.4,2.4,0,0,1,.09.68,2.5,2.5,0,0,1-.09.69,2.61,2.61,0,0,1-.27.62,2.46,2.46,0,0,1-.42.53,2.7,2.7,0,0,1-.55.41,2.77,2.77,0,0,1-.65.26A2.83,2.83,0,0,1,90.78,49Zm0-.25a1.53,1.53,0,0,0,.74-0.18,1.58,1.58,0,0,0,.54-0.49,2.3,2.3,0,0,0,.34-0.75,3.68,3.68,0,0,0,.11-0.94,3.54,3.54,0,0,0-.11-0.93,2.23,2.23,0,0,0-.34-0.73,1.54,1.54,0,0,0-.54-0.47,1.57,1.57,0,0,0-.74-0.17,1.61,1.61,0,0,0-.76.17,1.52,1.52,0,0,0-.54.47,2.19,2.19,0,0,0-.33.73,3.62,3.62,0,0,0-.11.93,3.76,3.76,0,0,0,.11.94,2.26,2.26,0,0,0,.33.75A1.51,1.51,0,0,0,90.78,48.74Z" transform="translate(-2 -2.58)"/><path class="cls-1" d="M95.38,44h0.46l3.22,3.59h0V44h0.36v5H99.26l-3.48-4h0v3.87H95.38V44Z" transform="translate(-2 -2.58)"/><path class="cls-1" d="M104.53,42.09h0.82v8.65h-0.82V42.09Z" transform="translate(-2 -2.58)"/><path class="cls-1" d="M110.43,44h1.7a2.91,2.91,0,0,1,.78.09,1.67,1.67,0,0,1,.55.27,1.11,1.11,0,0,1,.33.4,1.16,1.16,0,0,1,.11.51,1.06,1.06,0,0,1-.09.43,1.19,1.19,0,0,1-.25.36,1.55,1.55,0,0,1-.38.28,2.06,2.06,0,0,1-.49.18l1.79,2.38h-1l-1.7-2.31h-0.58v2.31h-0.82V44Zm0.82,2.35h0.48a1.7,1.7,0,0,0,.51-0.07,1.28,1.28,0,0,0,.41-0.21,1,1,0,0,0,.27-0.33,1,1,0,0,0,.1-0.43,1,1,0,0,0-.08-0.4,0.93,0.93,0,0,0-.21-0.32,1,1,0,0,0-.33-0.21,1.16,1.16,0,0,0-.42-0.07h-0.73v2Z" transform="translate(-2 -2.58)"/><path class="cls-1" d="M119.38,44v0.32H116.8V46h1.73v0.32H116.8v2.2h2.59v0.32H116V44h3.41Z" transform="translate(-2 -2.58)"/><path class="cls-1" d="M122.51,48.67a1.35,1.35,0,0,0,.36,0,1,1,0,0,0,.32-0.15,0.79,0.79,0,0,0,.22-0.24,0.63,0.63,0,0,0,.08-0.33,0.7,0.7,0,0,0-.12-0.4,1.43,1.43,0,0,0-.3-0.32,2.77,2.77,0,0,0-.43-0.28l-0.5-.26-0.49-.27a2.57,2.57,0,0,1-.43-0.32,1.49,1.49,0,0,1-.3-0.39,1,1,0,0,1-.12-0.5,1.29,1.29,0,0,1,.11-0.52,1.16,1.16,0,0,1,.31-0.42,1.5,1.5,0,0,1,.5-0.28,2.16,2.16,0,0,1,.68-0.1,1.83,1.83,0,0,1,1.1.29,1.62,1.62,0,0,1,.58.84l-0.42.19a2,2,0,0,0-.19-0.41,1.34,1.34,0,0,0-.28-0.32,1.17,1.17,0,0,0-.37-0.21,1.42,1.42,0,0,0-.47-0.07,1.16,1.16,0,0,0-.41.07,0.85,0.85,0,0,0-.29.17,0.71,0.71,0,0,0-.17.24,0.67,0.67,0,0,0-.06.27,0.58,0.58,0,0,0,.12.35,1.53,1.53,0,0,0,.31.3,3.21,3.21,0,0,0,.44.28l0.51,0.27,0.51,0.29a2.78,2.78,0,0,1,.44.32,1.6,1.6,0,0,1,.31.39,0.93,0.93,0,0,1,.12.47,1.37,1.37,0,0,1-.11.55,1.25,1.25,0,0,1-.33.45,1.64,1.64,0,0,1-.55.3,2.43,2.43,0,0,1-.77.11,2.34,2.34,0,0,1-.63-0.08,1.61,1.61,0,0,1-.49-0.23,1.47,1.47,0,0,1-.37-0.36,2,2,0,0,1-.25-0.49l0.44-.18a1.69,1.69,0,0,0,.21.43,1.35,1.35,0,0,0,.3.32,1.3,1.3,0,0,0,.39.2A1.45,1.45,0,0,0,122.51,48.67Z" transform="translate(-2 -2.58)"/><path class="cls-1" d="M129.91,44v0.32h-1.78v4.59h-0.83V44.28h-1.78V44h4.38Z" transform="translate(-2 -2.58)"/><path class="cls-1" d="M133.8,49a2.84,2.84,0,0,1-.73-0.09,2.78,2.78,0,0,1-.65-0.26,2.72,2.72,0,0,1-.55-0.41,2.51,2.51,0,0,1-.42-0.53,2.59,2.59,0,0,1-.27-0.62,2.52,2.52,0,0,1-.09-0.69,2.42,2.42,0,0,1,.09-0.68,2.45,2.45,0,0,1,.69-1.12,2.72,2.72,0,0,1,.55-0.4,2.89,2.89,0,0,1,.65-0.25,2.9,2.9,0,0,1,2.11.25,2.69,2.69,0,0,1,.55.4,2.43,2.43,0,0,1,.69,1.12,2.35,2.35,0,0,1,.1.68,2.45,2.45,0,0,1-.1.69,2.59,2.59,0,0,1-.27.62,2.51,2.51,0,0,1-.42.53,2.7,2.7,0,0,1-.55.41,2.8,2.8,0,0,1-.65.26A2.84,2.84,0,0,1,133.8,49Zm0-.25a1.52,1.52,0,0,0,.74-0.18,1.58,1.58,0,0,0,.54-0.49,2.3,2.3,0,0,0,.34-0.75,3.69,3.69,0,0,0,.11-0.94,3.54,3.54,0,0,0-.11-0.93,2.23,2.23,0,0,0-.34-0.73,1.54,1.54,0,0,0-.54-0.47,1.57,1.57,0,0,0-.74-0.17,1.61,1.61,0,0,0-.76.17,1.53,1.53,0,0,0-.54.47,2.17,2.17,0,0,0-.33.73,3.59,3.59,0,0,0-.11.93,3.73,3.73,0,0,0,.11.94,2.24,2.24,0,0,0,.33.75A1.51,1.51,0,0,0,133.8,48.74Z" transform="translate(-2 -2.58)"/><path class="cls-1" d="M138.4,44h1.7a2.92,2.92,0,0,1,.78.09,1.66,1.66,0,0,1,.55.27,1.13,1.13,0,0,1,.34.4,1.16,1.16,0,0,1,.11.51,1,1,0,0,1-.09.43,1.17,1.17,0,0,1-.24.36,1.56,1.56,0,0,1-.38.28,2,2,0,0,1-.49.18l1.79,2.38h-1l-1.71-2.31h-0.58v2.31H138.4V44Zm0.82,2.35h0.48a1.7,1.7,0,0,0,.51-0.07,1.26,1.26,0,0,0,.41-0.21,1,1,0,0,0,.37-0.76,1,1,0,0,0-.08-0.4,0.91,0.91,0,0,0-.22-0.32,1,1,0,0,0-.33-0.21,1.16,1.16,0,0,0-.42-0.07h-0.73v2Z" transform="translate(-2 -2.58)"/><path class="cls-1" d="M145.91,43.85l2.31,5h-0.84l-0.75-1.64h-2.1l-0.78,1.64h-0.41l2.36-5h0.2Zm-1.24,3.06h1.81L145.59,45Z" transform="translate(-2 -2.58)"/><path class="cls-1" d="M153.11,44v0.32h-1.78v4.59h-0.82V44.28h-1.78V44h4.38Z" transform="translate(-2 -2.58)"/><path class="cls-1" d="M154.73,44h0.82v4.91h-0.82V44Z" transform="translate(-2 -2.58)"/><path class="cls-1" d="M157.93,44l1.85,3.9L161.5,44h0.39l-2.23,5h-0.21l-2.39-5h0.87Z" transform="translate(-2 -2.58)"/><path class="cls-1" d="M166.79,44v0.32h-2.59V46h1.73v0.32h-1.73v2.2h2.59v0.32h-3.41V44h3.41Z" transform="translate(-2 -2.58)"/><path class="cls-1" d="M171.56,44h1.63a5.23,5.23,0,0,1,1.3.14,2.25,2.25,0,0,1,.91.45,2.31,2.31,0,0,1,.63.81,2.39,2.39,0,0,1,.21,1,2.51,2.51,0,0,1-.19,1,2.27,2.27,0,0,1-.55.8,2.58,2.58,0,0,1-.89.53,3.48,3.48,0,0,1-1.21.2h-1.83V44Zm0.82,4.55h0.87a2.19,2.19,0,0,0,.78-0.14,1.77,1.77,0,0,0,.64-0.41,1.9,1.9,0,0,0,.43-0.67,2.48,2.48,0,0,0,.16-0.91,2.27,2.27,0,0,0-.15-0.83,2,2,0,0,0-.41-0.65,1.91,1.91,0,0,0-.63-0.43,2.05,2.05,0,0,0-.8-0.15h-0.88v4.19Z" transform="translate(-2 -2.58)"/><path class="cls-1" d="M181.53,44v0.32h-2.59V46h1.73v0.32h-1.73v2.2h2.59v0.32h-3.41V44h3.41Z" transform="translate(-2 -2.58)"/><path class="cls-1" d="M183.31,44h0.46L187,47.55h0V44h0.36v5h-0.19l-3.48-4h0v3.87h-0.37V44Z" transform="translate(-2 -2.58)"/><path class="cls-1" d="M193.38,44v0.32h-1.77v4.59h-0.82V44.28H189V44h4.38Z" transform="translate(-2 -2.58)"/><path class="cls-1" d="M195,44h0.82v4.91H195V44Z" transform="translate(-2 -2.58)"/><path class="cls-1" d="M199.27,48.67a1.35,1.35,0,0,0,.36,0,1,1,0,0,0,.32-0.15,0.81,0.81,0,0,0,.22-0.24,0.64,0.64,0,0,0,.08-0.33,0.71,0.71,0,0,0-.12-0.4,1.46,1.46,0,0,0-.31-0.32,2.85,2.85,0,0,0-.43-0.28l-0.5-.26-0.5-.27a2.48,2.48,0,0,1-.43-0.32,1.48,1.48,0,0,1-.31-0.39,1,1,0,0,1-.12-0.5,1.28,1.28,0,0,1,.11-0.52,1.16,1.16,0,0,1,.31-0.42,1.5,1.5,0,0,1,.5-0.28,2.15,2.15,0,0,1,.68-0.1,1.83,1.83,0,0,1,1.1.29,1.63,1.63,0,0,1,.58.84l-0.42.19a1.9,1.9,0,0,0-.19-0.41,1.32,1.32,0,0,0-.28-0.32,1.17,1.17,0,0,0-.37-0.21,1.41,1.41,0,0,0-.47-0.07,1.17,1.17,0,0,0-.41.07,0.86,0.86,0,0,0-.29.17,0.7,0.7,0,0,0-.17.24,0.68,0.68,0,0,0-.06.27,0.57,0.57,0,0,0,.12.35,1.48,1.48,0,0,0,.31.3,3.29,3.29,0,0,0,.44.28l0.51,0.27,0.51,0.29a2.89,2.89,0,0,1,.44.32,1.61,1.61,0,0,1,.31.39,0.93,0.93,0,0,1,.12.47,1.36,1.36,0,0,1-.11.55,1.24,1.24,0,0,1-.33.45,1.62,1.62,0,0,1-.55.3,2.42,2.42,0,0,1-.77.11,2.35,2.35,0,0,1-.63-0.08,1.6,1.6,0,0,1-.49-0.23,1.48,1.48,0,0,1-.37-0.36,2.14,2.14,0,0,1-.25-0.49l0.44-.18a1.67,1.67,0,0,0,.21.43,1.37,1.37,0,0,0,.31.32,1.28,1.28,0,0,0,.39.2A1.46,1.46,0,0,0,199.27,48.67Z" transform="translate(-2 -2.58)"/><path class="cls-1" d="M206.68,44v0.32H204.9v4.59h-0.82V44.28H202.3V44h4.38Z" transform="translate(-2 -2.58)"/><path class="cls-1" d="M208.3,44H210a2.92,2.92,0,0,1,.78.09,1.66,1.66,0,0,1,.55.27,1.12,1.12,0,0,1,.34.4,1.16,1.16,0,0,1,.11.51,1.06,1.06,0,0,1-.09.43,1.15,1.15,0,0,1-.24.36,1.54,1.54,0,0,1-.38.28,2.07,2.07,0,0,1-.49.18l1.79,2.38h-1l-1.7-2.31h-0.58v2.31H208.3V44Zm0.82,2.35h0.48a1.7,1.7,0,0,0,.51-0.07,1.24,1.24,0,0,0,.41-0.21,0.95,0.95,0,0,0,.37-0.76,1,1,0,0,0-.08-0.4,0.92,0.92,0,0,0-.21-0.32,1,1,0,0,0-.33-0.21,1.15,1.15,0,0,0-.41-0.07h-0.73v2Z" transform="translate(-2 -2.58)"/><path class="cls-1" d="M213.74,44l1.7,2.49L217.13,44h0.45l-1.9,2.79v2.12h-0.82v-2l-2-2.86h0.85Z" transform="translate(-2 -2.58)"/><line class="cls-4" x1="59" y1="57.67" x2="0.5" y2="57.67"/><line class="cls-4" x1="59" y1="59.83" x2="0.5" y2="59.83"/><line class="cls-4" x1="215" y1="57.67" x2="156.5" y2="57.67"/><line class="cls-4" x1="215" y1="59.83" x2="156.5" y2="59.83"/></svg>