<?xml version="1.0" encoding="utf-8"?>
<!-- Generator: Adobe Illustrator 19.2.1, SVG Export Plug-In . SVG Version: 6.00 Build 0)  -->
<svg version="1.1" id="Layer_1" xmlns="http://www.w3.org/2000/svg" xmlns:xlink="http://www.w3.org/1999/xlink" x="0px" y="0px"
	 viewBox="0 0 220 70" style="enable-background:new 0 0 220 70;" xml:space="preserve">
<style type="text/css">
	.st0{fill:#010101;}
	.st1{fill:none;stroke:#010101;stroke-miterlimit:10;}
	.st2{fill:none;stroke:#000000;stroke-miterlimit:10;}
</style>
<g>
	<g>
		<g>
			<path class="st0" d="M20,26.8c0.4,0,0.8-0.1,1.2-0.2c0.4-0.1,0.8-0.3,1.1-0.5c0.3-0.2,0.6-0.5,0.8-0.8c0.2-0.3,0.3-0.7,0.3-1.1
				c0-0.5-0.1-1-0.4-1.4c-0.3-0.4-0.6-0.8-1.1-1.1c-0.4-0.3-0.9-0.7-1.5-1c-0.6-0.3-1.1-0.6-1.7-0.9c-0.6-0.3-1.1-0.6-1.7-0.9
				c-0.6-0.3-1.1-0.7-1.5-1.1c-0.4-0.4-0.8-0.9-1.1-1.3c-0.3-0.5-0.4-1.1-0.4-1.7c0-0.6,0.1-1.3,0.4-1.8c0.2-0.6,0.6-1,1.1-1.4
				c0.5-0.4,1-0.7,1.7-1c0.7-0.2,1.5-0.3,2.4-0.3c1.6,0,2.9,0.3,3.8,1c0.9,0.7,1.6,1.6,2,2.9L24,14.7c-0.2-0.5-0.4-1-0.7-1.4
				c-0.3-0.4-0.6-0.8-0.9-1.1c-0.4-0.3-0.8-0.5-1.3-0.7c-0.5-0.2-1-0.2-1.6-0.2c-0.5,0-1,0.1-1.4,0.2c-0.4,0.2-0.7,0.3-1,0.6
				c-0.3,0.2-0.5,0.5-0.6,0.8c-0.1,0.3-0.2,0.6-0.2,0.9c0,0.4,0.1,0.9,0.4,1.2c0.3,0.4,0.6,0.7,1.1,1.1c0.4,0.3,1,0.7,1.5,1
				c0.6,0.3,1.2,0.6,1.8,0.9c0.6,0.3,1.2,0.6,1.8,1c0.6,0.3,1.1,0.7,1.5,1.1c0.4,0.4,0.8,0.8,1.1,1.3c0.3,0.5,0.4,1,0.4,1.6
				c0,0.7-0.1,1.3-0.4,1.9c-0.3,0.6-0.6,1.1-1.1,1.5c-0.5,0.4-1.1,0.8-1.9,1c-0.8,0.3-1.6,0.4-2.6,0.4c-0.8,0-1.5-0.1-2.2-0.3
				c-0.6-0.2-1.2-0.4-1.7-0.8c-0.5-0.3-0.9-0.8-1.3-1.3c-0.3-0.5-0.6-1.1-0.9-1.7l1.5-0.6c0.2,0.6,0.4,1,0.7,1.5
				c0.3,0.4,0.7,0.8,1.1,1.1c0.4,0.3,0.8,0.5,1.3,0.7C18.9,26.7,19.4,26.8,20,26.8z"/>
			<path class="st0" d="M34.6,10.5h2.9l6.6,13h0.1l6.5-13h2.9v16.9h-2.9V13.6h-0.1l-6.9,13.9H43l-7-13.8h-0.2v13.8h-1.3V10.5z"/>
			<path class="st0" d="M63.2,10.5h2.8v16.9h-2.8V10.5z"/>
			<path class="st0" d="M75.8,10.5h2.8v15.8h8.5v1.1H75.8V10.5z"/>
			<path class="st0" d="M106.8,10.5v1.1h-8.9v6.1h6v1.1h-6v7.6h8.9v1.1H95V10.5H106.8z"/>
		</g>
		<path class="st0" d="M116,2.6v35h101v-35H116z M139,12.6h-9v6h6v1h-6v8h9v1h-12v-17h12V12.6z M162,29.6h-1l-12-14h0v13h-1v-17h1.2
			l11.1,13H160v-13h2V29.6z M178.3,29.6h-0.7l-8.3-18h3l6.4,13.5l5.9-13.5h1.4L178.3,29.6z M201,20.4v8.2h-2v-7.9l-7.4-9.1h2.9
			l5.9,8.6l5.8-8.6h1.5L201,20.4z"/>
		<rect x="2.5" y="3.1" class="st1" width="214" height="34"/>
	</g>
</g>
<g>
	<path d="M68.4,65.4h-2.8v-8.7h2.4c1.8,0,2.7,0.7,2.7,2.2c0,1-0.4,1.7-1.3,2c1.1,0.2,1.7,1,1.7,2.2C71,64.6,70.2,65.4,68.4,65.4z
		 M66.6,60.5h1.3c0.6,0,1-0.1,1.2-0.4c0.3-0.3,0.4-0.6,0.4-1.1c0-0.5-0.1-0.8-0.4-1.1c-0.3-0.3-0.7-0.4-1.2-0.4h-1.3V60.5z
		 M66.6,64.5h1.8c0.6,0,1-0.1,1.2-0.4c0.3-0.3,0.4-0.7,0.4-1.2s-0.1-0.9-0.4-1.2s-0.7-0.4-1.2-0.4h-1.8V64.5z"/>
	<path d="M73.6,65.4h-1v-6.8h0.6l0.4,1.2c0.6-0.9,1.4-1.3,2.5-1.4v0.9c-1.1,0-1.9,0.5-2.4,1.4V65.4z"/>
	<path d="M80.9,58.8c0.5,0.3,0.7,1,0.7,1.9v4.6H81l-0.3-1.1c-0.8,0.8-1.6,1.2-2.5,1.2c-0.6,0-1.1-0.2-1.3-0.5
		c-0.3-0.3-0.4-0.8-0.4-1.3c0-0.5,0.2-1,0.5-1.3s1-0.6,1.9-0.7l1.8-0.3v-0.7c0-0.6-0.1-1-0.4-1.2c-0.3-0.2-0.6-0.3-1-0.3
		c-0.9,0-1.4,0.4-1.6,1.3l-0.8-0.3c0.1-0.6,0.4-1,0.8-1.4c0.4-0.3,1-0.5,1.7-0.5S80.5,58.5,80.9,58.8z M78.5,64.7
		c0.7,0,1.4-0.4,2.2-1.2v-1.4l-1.7,0.3c-0.6,0.1-1,0.3-1.2,0.5c-0.2,0.2-0.3,0.5-0.3,0.8c0,0.3,0.1,0.6,0.3,0.7
		C77.9,64.6,78.1,64.7,78.5,64.7z"/>
	<path d="M85.4,65.5c-1.5,0-2.2-1.2-2.2-3.6c0-2.4,0.9-3.6,2.7-3.6c0.6,0,1.2,0.2,1.9,0.5v-2.5l1-0.1v9.2h-0.7l-0.3-1
		C87,65.1,86.2,65.5,85.4,65.5z M85.7,64.7c0.7,0,1.4-0.4,2-1.1v-3.9c-0.6-0.3-1.1-0.5-1.7-0.5c-0.7,0-1.1,0.2-1.4,0.7
		c-0.3,0.5-0.4,1.2-0.4,2C84.2,63.8,84.7,64.7,85.7,64.7z"/>
	<path d="M97,65.4h-2.8v-8.7h2.4c1.8,0,2.7,0.7,2.7,2.2c0,1-0.4,1.7-1.3,2c1.1,0.2,1.7,1,1.7,2.2C99.7,64.6,98.8,65.4,97,65.4z
		 M95.2,60.5h1.3c0.6,0,1-0.1,1.2-0.4c0.3-0.3,0.4-0.6,0.4-1.1c0-0.5-0.1-0.8-0.4-1.1c-0.3-0.3-0.7-0.4-1.2-0.4h-1.3V60.5z
		 M95.2,64.5H97c0.6,0,1-0.1,1.2-0.4c0.3-0.3,0.4-0.7,0.4-1.2s-0.1-0.9-0.4-1.2s-0.7-0.4-1.2-0.4h-1.8V64.5z"/>
	<path d="M105.1,58.8c0.5,0.3,0.7,1,0.7,1.9v4.6h-0.7l-0.3-1.1c-0.8,0.8-1.6,1.2-2.5,1.2c-0.6,0-1.1-0.2-1.3-0.5
		c-0.3-0.3-0.4-0.8-0.4-1.3c0-0.5,0.2-1,0.5-1.3s1-0.6,1.9-0.7l1.8-0.3v-0.7c0-0.6-0.1-1-0.4-1.2c-0.3-0.2-0.6-0.3-1-0.3
		c-0.9,0-1.4,0.4-1.6,1.3l-0.8-0.3c0.1-0.6,0.4-1,0.8-1.4c0.4-0.3,1-0.5,1.7-0.5S104.6,58.5,105.1,58.8z M102.6,64.7
		c0.7,0,1.4-0.4,2.2-1.2v-1.4l-1.7,0.3c-0.6,0.1-1,0.3-1.2,0.5c-0.2,0.2-0.3,0.5-0.3,0.8c0,0.3,0.1,0.6,0.3,0.7
		C102,64.6,102.2,64.7,102.6,64.7z"/>
	<path d="M108.9,65.4h-1v-6.8h0.6l0.4,1.2c0.6-0.9,1.4-1.3,2.5-1.4v0.9c-1.1,0-1.9,0.5-2.4,1.4V65.4z"/>
	<path d="M113.4,65.4h-1v-9.1l1-0.1v5.1h0.9l1.9-2.8h1.1l-2.3,3.2l2.5,3.6h-1.1l-2.3-3.3h-0.8V65.4z"/>
	<path d="M120.9,65.5c-1,0-1.8-0.3-2.2-0.9c-0.4-0.6-0.7-1.5-0.7-2.7c0-2.4,1-3.6,2.9-3.6c1.9,0,2.8,1.1,2.8,3.4V62H119
		c0,0.9,0.2,1.6,0.4,2c0.3,0.4,0.8,0.6,1.5,0.6c1.1,0,1.7-0.5,1.8-1.4l0.8,0C123.4,64.8,122.5,65.5,120.9,65.5z M122.2,59.7
		c-0.3-0.4-0.7-0.5-1.3-0.5s-1.1,0.2-1.3,0.6c-0.3,0.4-0.4,0.9-0.5,1.5h3.6C122.6,60.6,122.4,60.1,122.2,59.7z"/>
	<path d="M126.2,65.4h-1v-6.8h0.6l0.4,1.2c0.6-0.9,1.4-1.3,2.5-1.4v0.9c-1.1,0-1.9,0.5-2.4,1.4V65.4z"/>
	<path d="M129.2,65.1c-0.1-0.2-0.1-0.3-0.1-0.5c0-0.1,0-0.2,0-0.3c0-0.1,0.1-0.2,0.2-0.2s0.2-0.1,0.4-0.1s0.3,0,0.4,0.1
		s0.2,0.2,0.2,0.2c0,0.1,0,0.2,0,0.4c0,0.2-0.1,0.4-0.2,0.7s-0.2,0.5-0.4,0.7c-0.3,0.3-0.5,0.5-0.7,0.7l-0.3-0.4
		c0.1-0.1,0.2-0.2,0.3-0.3c0.2-0.2,0.2-0.4,0.2-0.7C129.3,65.5,129.3,65.3,129.2,65.1z"/>
	<path d="M135,58.2h2.2c1.1,0,1.9,0.4,2.3,1.1c0.2,0.3,0.3,0.7,0.4,1.1c0.1,0.4,0.1,0.8,0.1,1.3s0,0.9-0.1,1.2c0,0.3-0.1,0.7-0.2,1
		c-0.1,0.3-0.3,0.6-0.5,0.8c-0.5,0.5-1.1,0.7-2,0.7H135V58.2z M137.2,58.9h-1.3v5.8h1.3c0.6,0,1.1-0.2,1.4-0.5
		c0.4-0.4,0.5-1.2,0.5-2.3c0-1.1-0.2-1.9-0.5-2.3C138.3,59.1,137.8,58.9,137.2,58.9z"/>
	<path d="M146.9,58.2h1.2l0.2,7.1h-0.8l-0.1-6l-2,5.4h-0.8l-1.9-5.4l-0.1,6h-0.8l0.2-7.1h1.2l1.9,5.5L146.9,58.2z"/>
	<path d="M150,58.2h2.2c1.1,0,1.9,0.4,2.3,1.1c0.2,0.3,0.3,0.7,0.4,1.1c0.1,0.4,0.1,0.8,0.1,1.3s0,0.9-0.1,1.2c0,0.3-0.1,0.7-0.2,1
		c-0.1,0.3-0.3,0.6-0.5,0.8c-0.5,0.5-1.1,0.7-2,0.7H150V58.2z M152.1,58.9h-1.3v5.8h1.3c0.6,0,1.1-0.2,1.4-0.5
		c0.4-0.4,0.5-1.2,0.5-2.3c0-1.1-0.2-1.9-0.5-2.3C153.2,59.1,152.7,58.9,152.1,58.9z"/>
</g>
<g>
</g>
<g>
	<path class="st0" d="M3.7,46.4c0,0.3,0.1,0.7,0.2,0.9c0.1,0.3,0.2,0.5,0.4,0.7c0.2,0.2,0.4,0.3,0.6,0.4c0.2,0.1,0.5,0.1,0.8,0.1
		c0.2,0,0.3,0,0.5-0.1c0.2-0.1,0.3-0.2,0.4-0.3c0.1-0.1,0.3-0.2,0.4-0.4c0.1-0.1,0.2-0.3,0.3-0.4l0.3,0.2c-0.1,0.2-0.2,0.3-0.4,0.5
		c-0.1,0.2-0.3,0.3-0.5,0.4c-0.2,0.1-0.4,0.2-0.6,0.3C6,48.9,5.7,49,5.5,49c-0.3,0-0.5,0-0.8-0.1c-0.2-0.1-0.5-0.1-0.7-0.3
		c-0.2-0.1-0.4-0.2-0.5-0.4c-0.2-0.2-0.3-0.3-0.4-0.5c-0.1-0.2-0.2-0.4-0.3-0.6c-0.1-0.2-0.1-0.4-0.1-0.7c0-0.2,0-0.5,0.1-0.7
		c0.1-0.2,0.1-0.4,0.3-0.6c0.1-0.2,0.2-0.4,0.4-0.5c0.2-0.2,0.3-0.3,0.5-0.4c0.2-0.1,0.4-0.2,0.7-0.3c0.2-0.1,0.5-0.1,0.8-0.1
		c0.3,0,0.5,0,0.7,0.1c0.2,0.1,0.4,0.2,0.6,0.3c0.2,0.1,0.3,0.3,0.5,0.4c0.1,0.2,0.3,0.3,0.4,0.5l-0.4,0.2c-0.2-0.4-0.4-0.7-0.7-0.9
		c-0.3-0.2-0.5-0.3-0.9-0.3c-0.3,0-0.5,0.1-0.8,0.2c-0.2,0.1-0.5,0.3-0.6,0.4C4.1,45,4,45.2,3.9,45.5C3.8,45.8,3.7,46.1,3.7,46.4z"
		/>
	<path class="st0" d="M12.1,49c-0.3,0-0.5,0-0.7-0.1c-0.2-0.1-0.4-0.1-0.6-0.3c-0.2-0.1-0.4-0.2-0.5-0.4c-0.2-0.2-0.3-0.3-0.4-0.5
		c-0.1-0.2-0.2-0.4-0.3-0.6c-0.1-0.2-0.1-0.5-0.1-0.7c0-0.2,0-0.5,0.1-0.7c0.1-0.2,0.2-0.4,0.3-0.6c0.1-0.2,0.3-0.4,0.4-0.5
		c0.2-0.2,0.3-0.3,0.5-0.4c0.2-0.1,0.4-0.2,0.6-0.3c0.2-0.1,0.5-0.1,0.7-0.1c0.3,0,0.5,0,0.7,0.1c0.2,0.1,0.4,0.1,0.6,0.3
		c0.2,0.1,0.4,0.2,0.5,0.4c0.2,0.2,0.3,0.3,0.4,0.5c0.1,0.2,0.2,0.4,0.3,0.6c0.1,0.2,0.1,0.4,0.1,0.7c0,0.2,0,0.5-0.1,0.7
		c-0.1,0.2-0.2,0.4-0.3,0.6c-0.1,0.2-0.3,0.4-0.4,0.5c-0.2,0.2-0.3,0.3-0.5,0.4c-0.2,0.1-0.4,0.2-0.6,0.3C12.5,49,12.3,49,12.1,49z
		 M12.1,48.7c0.3,0,0.5-0.1,0.7-0.2c0.2-0.1,0.4-0.3,0.5-0.5c0.1-0.2,0.3-0.5,0.3-0.7c0.1-0.3,0.1-0.6,0.1-0.9c0-0.3,0-0.6-0.1-0.9
		c-0.1-0.3-0.2-0.5-0.3-0.7c-0.1-0.2-0.3-0.4-0.5-0.5c-0.2-0.1-0.5-0.2-0.7-0.2c-0.3,0-0.5,0.1-0.8,0.2c-0.2,0.1-0.4,0.3-0.5,0.5
		c-0.1,0.2-0.3,0.4-0.3,0.7c-0.1,0.3-0.1,0.6-0.1,0.9c0,0.3,0,0.7,0.1,0.9c0.1,0.3,0.2,0.5,0.3,0.7c0.1,0.2,0.3,0.4,0.5,0.5
		C11.5,48.7,11.8,48.7,12.1,48.7z"/>
	<path class="st0" d="M18,48.7c0.1,0,0.2,0,0.4,0c0.1,0,0.2-0.1,0.3-0.1c0.1-0.1,0.2-0.1,0.2-0.2c0.1-0.1,0.1-0.2,0.1-0.3
		c0-0.2,0-0.3-0.1-0.4c-0.1-0.1-0.2-0.2-0.3-0.3c-0.1-0.1-0.3-0.2-0.4-0.3c-0.2-0.1-0.3-0.2-0.5-0.3c-0.2-0.1-0.3-0.2-0.5-0.3
		c-0.2-0.1-0.3-0.2-0.4-0.3c-0.1-0.1-0.2-0.2-0.3-0.4c-0.1-0.1-0.1-0.3-0.1-0.5c0-0.2,0-0.4,0.1-0.5s0.2-0.3,0.3-0.4
		c0.1-0.1,0.3-0.2,0.5-0.3c0.2-0.1,0.4-0.1,0.7-0.1c0.5,0,0.8,0.1,1.1,0.3c0.3,0.2,0.5,0.5,0.6,0.8l-0.4,0.2c0-0.2-0.1-0.3-0.2-0.4
		c-0.1-0.1-0.2-0.2-0.3-0.3c-0.1-0.1-0.2-0.2-0.4-0.2c-0.1,0-0.3-0.1-0.5-0.1c-0.2,0-0.3,0-0.4,0.1c-0.1,0-0.2,0.1-0.3,0.2
		c-0.1,0.1-0.1,0.1-0.2,0.2c0,0.1-0.1,0.2-0.1,0.3c0,0.1,0,0.2,0.1,0.4c0.1,0.1,0.2,0.2,0.3,0.3c0.1,0.1,0.3,0.2,0.4,0.3
		c0.2,0.1,0.3,0.2,0.5,0.3c0.2,0.1,0.3,0.2,0.5,0.3c0.2,0.1,0.3,0.2,0.4,0.3c0.1,0.1,0.2,0.2,0.3,0.4c0.1,0.1,0.1,0.3,0.1,0.5
		c0,0.2,0,0.4-0.1,0.5c-0.1,0.2-0.2,0.3-0.3,0.4c-0.1,0.1-0.3,0.2-0.6,0.3c-0.2,0.1-0.5,0.1-0.8,0.1c-0.2,0-0.4,0-0.6-0.1
		c-0.2-0.1-0.3-0.1-0.5-0.2c-0.1-0.1-0.3-0.2-0.4-0.4c-0.1-0.1-0.2-0.3-0.3-0.5l0.4-0.2c0.1,0.2,0.1,0.3,0.2,0.4
		c0.1,0.1,0.2,0.2,0.3,0.3c0.1,0.1,0.2,0.2,0.4,0.2C17.7,48.6,17.8,48.7,18,48.7z"/>
	<path class="st0" d="M21.5,44h0.8l1.9,3.8h0l1.9-3.8H27v4.9h-0.8v-4h0l-2,4h-0.2l-2-4h-0.1v4h-0.4V44z"/>
	<path class="st0" d="M32.5,44v0.3h-2.6V46h1.7v0.3h-1.7v2.2h2.6v0.3h-3.4V44H32.5z"/>
	<path class="st0" d="M38.2,44v0.3h-1.8v4.6h-0.8v-4.6h-1.8V44H38.2z"/>
	<path class="st0" d="M39.8,44h0.8v4.9h-0.8V44z"/>
	<path class="st0" d="M43.5,46.4c0,0.3,0.1,0.7,0.2,0.9c0.1,0.3,0.2,0.5,0.4,0.7c0.2,0.2,0.4,0.3,0.6,0.4c0.2,0.1,0.5,0.1,0.8,0.1
		c0.2,0,0.3,0,0.5-0.1c0.2-0.1,0.3-0.2,0.4-0.3c0.1-0.1,0.3-0.2,0.4-0.4c0.1-0.1,0.2-0.3,0.3-0.4l0.3,0.2c-0.1,0.2-0.2,0.3-0.4,0.5
		c-0.1,0.2-0.3,0.3-0.5,0.4c-0.2,0.1-0.4,0.2-0.6,0.3c-0.2,0.1-0.5,0.1-0.8,0.1c-0.3,0-0.5,0-0.8-0.1c-0.2-0.1-0.5-0.1-0.7-0.3
		c-0.2-0.1-0.4-0.2-0.5-0.4c-0.2-0.2-0.3-0.3-0.4-0.5c-0.1-0.2-0.2-0.4-0.3-0.6c-0.1-0.2-0.1-0.4-0.1-0.7c0-0.2,0-0.5,0.1-0.7
		c0.1-0.2,0.1-0.4,0.3-0.6c0.1-0.2,0.2-0.4,0.4-0.5c0.2-0.2,0.3-0.3,0.5-0.4c0.2-0.1,0.4-0.2,0.7-0.3c0.2-0.1,0.5-0.1,0.8-0.1
		c0.3,0,0.5,0,0.7,0.1c0.2,0.1,0.4,0.2,0.6,0.3c0.2,0.1,0.3,0.3,0.5,0.4c0.1,0.2,0.3,0.3,0.4,0.5l-0.4,0.2c-0.2-0.4-0.4-0.7-0.7-0.9
		c-0.3-0.2-0.5-0.3-0.9-0.3c-0.3,0-0.5,0.1-0.8,0.2c-0.2,0.1-0.5,0.3-0.6,0.4c-0.2,0.2-0.3,0.4-0.4,0.7
		C43.5,45.8,43.5,46.1,43.5,46.4z"/>
	<path class="st0" d="M52.3,42.1h0.8v8.6h-0.8V42.1z"/>
	<path class="st0" d="M59.5,48.7c0.1,0,0.2,0,0.4,0c0.1,0,0.2-0.1,0.3-0.1c0.1-0.1,0.2-0.1,0.2-0.2c0.1-0.1,0.1-0.2,0.1-0.3
		c0-0.2,0-0.3-0.1-0.4c-0.1-0.1-0.2-0.2-0.3-0.3c-0.1-0.1-0.3-0.2-0.4-0.3c-0.2-0.1-0.3-0.2-0.5-0.3c-0.2-0.1-0.3-0.2-0.5-0.3
		c-0.2-0.1-0.3-0.2-0.4-0.3c-0.1-0.1-0.2-0.2-0.3-0.4c-0.1-0.1-0.1-0.3-0.1-0.5c0-0.2,0-0.4,0.1-0.5c0.1-0.2,0.2-0.3,0.3-0.4
		c0.1-0.1,0.3-0.2,0.5-0.3c0.2-0.1,0.4-0.1,0.7-0.1c0.5,0,0.8,0.1,1.1,0.3c0.3,0.2,0.5,0.5,0.6,0.8l-0.4,0.2c0-0.2-0.1-0.3-0.2-0.4
		c-0.1-0.1-0.2-0.2-0.3-0.3c-0.1-0.1-0.2-0.2-0.4-0.2c-0.1,0-0.3-0.1-0.5-0.1c-0.2,0-0.3,0-0.4,0.1c-0.1,0-0.2,0.1-0.3,0.2
		c-0.1,0.1-0.1,0.1-0.2,0.2c0,0.1-0.1,0.2-0.1,0.3c0,0.1,0,0.2,0.1,0.4c0.1,0.1,0.2,0.2,0.3,0.3c0.1,0.1,0.3,0.2,0.4,0.3
		c0.2,0.1,0.3,0.2,0.5,0.3c0.2,0.1,0.3,0.2,0.5,0.3c0.2,0.1,0.3,0.2,0.4,0.3c0.1,0.1,0.2,0.2,0.3,0.4c0.1,0.1,0.1,0.3,0.1,0.5
		c0,0.2,0,0.4-0.1,0.5c-0.1,0.2-0.2,0.3-0.3,0.4c-0.1,0.1-0.3,0.2-0.6,0.3C60,48.9,59.8,49,59.5,49c-0.2,0-0.4,0-0.6-0.1
		c-0.2-0.1-0.3-0.1-0.5-0.2c-0.1-0.1-0.3-0.2-0.4-0.4c-0.1-0.1-0.2-0.3-0.3-0.5l0.4-0.2c0.1,0.2,0.1,0.3,0.2,0.4
		c0.1,0.1,0.2,0.2,0.3,0.3c0.1,0.1,0.2,0.2,0.4,0.2C59.2,48.6,59.4,48.7,59.5,48.7z"/>
	<path class="st0" d="M66.4,44v0.3h-2.6V46h1.7v0.3h-1.7v2.2h2.6v0.3H63V44H66.4z"/>
	<path class="st0" d="M68.2,44h1.6c0.5,0,0.9,0,1.3,0.1c0.4,0.1,0.7,0.2,0.9,0.5c0.3,0.2,0.5,0.5,0.6,0.8c0.1,0.3,0.2,0.6,0.2,1
		c0,0.3-0.1,0.7-0.2,1c-0.1,0.3-0.3,0.6-0.5,0.8c-0.2,0.2-0.5,0.4-0.9,0.5c-0.4,0.1-0.8,0.2-1.2,0.2h-1.8V44z M69.1,48.5h0.9
		c0.3,0,0.5,0,0.8-0.1c0.2-0.1,0.5-0.2,0.6-0.4c0.2-0.2,0.3-0.4,0.4-0.7c0.1-0.3,0.2-0.6,0.2-0.9c0-0.3,0-0.6-0.1-0.8
		c-0.1-0.3-0.2-0.5-0.4-0.7c-0.2-0.2-0.4-0.3-0.6-0.4c-0.2-0.1-0.5-0.2-0.8-0.2h-0.9V48.5z"/>
	<path class="st0" d="M76.5,43.8l2.3,5H78l-0.8-1.6h-2.1l-0.8,1.6H74l2.4-5H76.5z M75.3,46.9h1.8L76.2,45L75.3,46.9z"/>
	<path class="st0" d="M83.7,44v0.3H82v4.6h-0.8v-4.6h-1.8V44H83.7z"/>
	<path class="st0" d="M85.4,44h0.8v4.9h-0.8V44z"/>
	<path class="st0" d="M90.8,49c-0.3,0-0.5,0-0.7-0.1c-0.2-0.1-0.4-0.1-0.6-0.3c-0.2-0.1-0.4-0.2-0.5-0.4c-0.2-0.2-0.3-0.3-0.4-0.5
		c-0.1-0.2-0.2-0.4-0.3-0.6c-0.1-0.2-0.1-0.5-0.1-0.7c0-0.2,0-0.5,0.1-0.7c0.1-0.2,0.2-0.4,0.3-0.6c0.1-0.2,0.3-0.4,0.4-0.5
		c0.2-0.2,0.3-0.3,0.5-0.4c0.2-0.1,0.4-0.2,0.6-0.3c0.2-0.1,0.5-0.1,0.7-0.1c0.3,0,0.5,0,0.7,0.1c0.2,0.1,0.4,0.1,0.6,0.3
		c0.2,0.1,0.4,0.2,0.5,0.4c0.2,0.2,0.3,0.3,0.4,0.5c0.1,0.2,0.2,0.4,0.3,0.6c0.1,0.2,0.1,0.4,0.1,0.7c0,0.2,0,0.5-0.1,0.7
		c-0.1,0.2-0.2,0.4-0.3,0.6c-0.1,0.2-0.3,0.4-0.4,0.5c-0.2,0.2-0.3,0.3-0.5,0.4c-0.2,0.1-0.4,0.2-0.6,0.3C91.3,49,91,49,90.8,49z
		 M90.8,48.7c0.3,0,0.5-0.1,0.7-0.2c0.2-0.1,0.4-0.3,0.5-0.5c0.1-0.2,0.3-0.5,0.3-0.7c0.1-0.3,0.1-0.6,0.1-0.9c0-0.3,0-0.6-0.1-0.9
		c-0.1-0.3-0.2-0.5-0.3-0.7c-0.1-0.2-0.3-0.4-0.5-0.5c-0.2-0.1-0.5-0.2-0.7-0.2c-0.3,0-0.5,0.1-0.8,0.2c-0.2,0.1-0.4,0.3-0.5,0.5
		c-0.1,0.2-0.3,0.4-0.3,0.7C89.1,45.7,89,46,89,46.4c0,0.3,0,0.7,0.1,0.9c0.1,0.3,0.2,0.5,0.3,0.7c0.1,0.2,0.3,0.4,0.5,0.5
		C90.2,48.7,90.5,48.7,90.8,48.7z"/>
	<path class="st0" d="M95.4,44h0.5l3.2,3.6h0V44h0.4v5h-0.2l-3.5-4h0v3.9h-0.4V44z"/>
	<path class="st0" d="M104.5,42.1h0.8v8.6h-0.8V42.1z"/>
	<path class="st0" d="M110.4,44h1.7c0.3,0,0.6,0,0.8,0.1c0.2,0.1,0.4,0.2,0.6,0.3c0.1,0.1,0.3,0.2,0.3,0.4c0.1,0.2,0.1,0.3,0.1,0.5
		c0,0.2,0,0.3-0.1,0.4c-0.1,0.1-0.1,0.3-0.2,0.4c-0.1,0.1-0.2,0.2-0.4,0.3c-0.1,0.1-0.3,0.1-0.5,0.2l1.8,2.4h-1l-1.7-2.3h-0.6v2.3
		h-0.8V44z M111.3,46.3h0.5c0.2,0,0.4,0,0.5-0.1c0.2,0,0.3-0.1,0.4-0.2c0.1-0.1,0.2-0.2,0.3-0.3c0.1-0.1,0.1-0.3,0.1-0.4
		c0-0.1,0-0.3-0.1-0.4c-0.1-0.1-0.1-0.2-0.2-0.3c-0.1-0.1-0.2-0.2-0.3-0.2c-0.1,0-0.3-0.1-0.4-0.1h-0.7V46.3z"/>
	<path class="st0" d="M119.4,44v0.3h-2.6V46h1.7v0.3h-1.7v2.2h2.6v0.3H116V44H119.4z"/>
	<path class="st0" d="M122.5,48.7c0.1,0,0.2,0,0.4,0c0.1,0,0.2-0.1,0.3-0.1c0.1-0.1,0.2-0.1,0.2-0.2c0.1-0.1,0.1-0.2,0.1-0.3
		c0-0.2,0-0.3-0.1-0.4c-0.1-0.1-0.2-0.2-0.3-0.3c-0.1-0.1-0.3-0.2-0.4-0.3c-0.2-0.1-0.3-0.2-0.5-0.3c-0.2-0.1-0.3-0.2-0.5-0.3
		c-0.2-0.1-0.3-0.2-0.4-0.3c-0.1-0.1-0.2-0.2-0.3-0.4c-0.1-0.1-0.1-0.3-0.1-0.5c0-0.2,0-0.4,0.1-0.5c0.1-0.2,0.2-0.3,0.3-0.4
		c0.1-0.1,0.3-0.2,0.5-0.3c0.2-0.1,0.4-0.1,0.7-0.1c0.5,0,0.8,0.1,1.1,0.3c0.3,0.2,0.5,0.5,0.6,0.8l-0.4,0.2c0-0.2-0.1-0.3-0.2-0.4
		c-0.1-0.1-0.2-0.2-0.3-0.3c-0.1-0.1-0.2-0.2-0.4-0.2c-0.1,0-0.3-0.1-0.5-0.1c-0.2,0-0.3,0-0.4,0.1c-0.1,0-0.2,0.1-0.3,0.2
		c-0.1,0.1-0.1,0.1-0.2,0.2c0,0.1-0.1,0.2-0.1,0.3c0,0.1,0,0.2,0.1,0.4c0.1,0.1,0.2,0.2,0.3,0.3c0.1,0.1,0.3,0.2,0.4,0.3
		c0.2,0.1,0.3,0.2,0.5,0.3c0.2,0.1,0.3,0.2,0.5,0.3c0.2,0.1,0.3,0.2,0.4,0.3c0.1,0.1,0.2,0.2,0.3,0.4c0.1,0.1,0.1,0.3,0.1,0.5
		c0,0.2,0,0.4-0.1,0.5c-0.1,0.2-0.2,0.3-0.3,0.4c-0.1,0.1-0.3,0.2-0.6,0.3c-0.2,0.1-0.5,0.1-0.8,0.1c-0.2,0-0.4,0-0.6-0.1
		s-0.3-0.1-0.5-0.2c-0.1-0.1-0.3-0.2-0.4-0.4c-0.1-0.1-0.2-0.3-0.2-0.5l0.4-0.2c0.1,0.2,0.1,0.3,0.2,0.4c0.1,0.1,0.2,0.2,0.3,0.3
		c0.1,0.1,0.2,0.2,0.4,0.2C122.2,48.6,122.3,48.7,122.5,48.7z"/>
	<path class="st0" d="M129.9,44v0.3h-1.8v4.6h-0.8v-4.6h-1.8V44H129.9z"/>
	<path class="st0" d="M133.8,49c-0.3,0-0.5,0-0.7-0.1c-0.2-0.1-0.4-0.1-0.6-0.3c-0.2-0.1-0.4-0.2-0.5-0.4c-0.2-0.2-0.3-0.3-0.4-0.5
		c-0.1-0.2-0.2-0.4-0.3-0.6c-0.1-0.2-0.1-0.5-0.1-0.7c0-0.2,0-0.5,0.1-0.7c0.1-0.2,0.2-0.4,0.3-0.6c0.1-0.2,0.3-0.4,0.4-0.5
		c0.2-0.2,0.3-0.3,0.5-0.4c0.2-0.1,0.4-0.2,0.6-0.3c0.2-0.1,0.5-0.1,0.7-0.1c0.3,0,0.5,0,0.7,0.1c0.2,0.1,0.4,0.1,0.6,0.3
		c0.2,0.1,0.4,0.2,0.5,0.4c0.2,0.2,0.3,0.3,0.4,0.5c0.1,0.2,0.2,0.4,0.3,0.6c0.1,0.2,0.1,0.4,0.1,0.7c0,0.2,0,0.5-0.1,0.7
		c-0.1,0.2-0.2,0.4-0.3,0.6c-0.1,0.2-0.3,0.4-0.4,0.5c-0.2,0.2-0.3,0.3-0.5,0.4c-0.2,0.1-0.4,0.2-0.6,0.3
		C134.3,49,134.1,49,133.8,49z M133.8,48.7c0.3,0,0.5-0.1,0.7-0.2c0.2-0.1,0.4-0.3,0.5-0.5c0.1-0.2,0.3-0.5,0.3-0.7
		c0.1-0.3,0.1-0.6,0.1-0.9c0-0.3,0-0.6-0.1-0.9c-0.1-0.3-0.2-0.5-0.3-0.7c-0.1-0.2-0.3-0.4-0.5-0.5c-0.2-0.1-0.5-0.2-0.7-0.2
		c-0.3,0-0.5,0.1-0.8,0.2c-0.2,0.1-0.4,0.3-0.5,0.5c-0.1,0.2-0.3,0.4-0.3,0.7c-0.1,0.3-0.1,0.6-0.1,0.9c0,0.3,0,0.7,0.1,0.9
		c0.1,0.3,0.2,0.5,0.3,0.7c0.1,0.2,0.3,0.4,0.5,0.5C133.3,48.7,133.5,48.7,133.8,48.7z"/>
	<path class="st0" d="M138.4,44h1.7c0.3,0,0.6,0,0.8,0.1c0.2,0.1,0.4,0.2,0.6,0.3c0.1,0.1,0.3,0.2,0.3,0.4c0.1,0.2,0.1,0.3,0.1,0.5
		c0,0.2,0,0.3-0.1,0.4c-0.1,0.1-0.1,0.3-0.2,0.4c-0.1,0.1-0.2,0.2-0.4,0.3c-0.1,0.1-0.3,0.1-0.5,0.2l1.8,2.4h-1l-1.7-2.3h-0.6v2.3
		h-0.8V44z M139.2,46.3h0.5c0.2,0,0.4,0,0.5-0.1c0.2,0,0.3-0.1,0.4-0.2c0.1-0.1,0.2-0.2,0.3-0.3c0.1-0.1,0.1-0.3,0.1-0.4
		c0-0.1,0-0.3-0.1-0.4c-0.1-0.1-0.1-0.2-0.2-0.3c-0.1-0.1-0.2-0.2-0.3-0.2c-0.1,0-0.3-0.1-0.4-0.1h-0.7V46.3z"/>
	<path class="st0" d="M145.9,43.8l2.3,5h-0.8l-0.8-1.6h-2.1l-0.8,1.6h-0.4l2.4-5H145.9z M144.7,46.9h1.8l-0.9-1.9L144.7,46.9z"/>
	<path class="st0" d="M153.1,44v0.3h-1.8v4.6h-0.8v-4.6h-1.8V44H153.1z"/>
	<path class="st0" d="M154.7,44h0.8v4.9h-0.8V44z"/>
	<path class="st0" d="M157.9,44l1.8,3.9l1.7-3.9h0.4l-2.2,5h-0.2l-2.4-5H157.9z"/>
	<path class="st0" d="M166.8,44v0.3h-2.6V46h1.7v0.3h-1.7v2.2h2.6v0.3h-3.4V44H166.8z"/>
	<path class="st0" d="M171.6,44h1.6c0.5,0,0.9,0,1.3,0.1c0.4,0.1,0.7,0.2,0.9,0.5c0.3,0.2,0.5,0.5,0.6,0.8c0.1,0.3,0.2,0.6,0.2,1
		c0,0.3-0.1,0.7-0.2,1c-0.1,0.3-0.3,0.6-0.6,0.8c-0.2,0.2-0.5,0.4-0.9,0.5c-0.4,0.1-0.8,0.2-1.2,0.2h-1.8V44z M172.4,48.5h0.9
		c0.3,0,0.5,0,0.8-0.1c0.2-0.1,0.5-0.2,0.6-0.4c0.2-0.2,0.3-0.4,0.4-0.7c0.1-0.3,0.2-0.6,0.2-0.9c0-0.3,0-0.6-0.1-0.8
		c-0.1-0.3-0.2-0.5-0.4-0.7c-0.2-0.2-0.4-0.3-0.6-0.4c-0.2-0.1-0.5-0.2-0.8-0.2h-0.9V48.5z"/>
	<path class="st0" d="M181.5,44v0.3h-2.6V46h1.7v0.3h-1.7v2.2h2.6v0.3h-3.4V44H181.5z"/>
	<path class="st0" d="M183.3,44h0.5l3.2,3.6h0V44h0.4v5h-0.2l-3.5-4h0v3.9h-0.4V44z"/>
	<path class="st0" d="M193.4,44v0.3h-1.8v4.6h-0.8v-4.6H189V44H193.4z"/>
	<path class="st0" d="M195,44h0.8v4.9H195V44z"/>
	<path class="st0" d="M199.3,48.7c0.1,0,0.2,0,0.4,0c0.1,0,0.2-0.1,0.3-0.1c0.1-0.1,0.2-0.1,0.2-0.2c0.1-0.1,0.1-0.2,0.1-0.3
		c0-0.2,0-0.3-0.1-0.4c-0.1-0.1-0.2-0.2-0.3-0.3c-0.1-0.1-0.3-0.2-0.4-0.3c-0.2-0.1-0.3-0.2-0.5-0.3c-0.2-0.1-0.3-0.2-0.5-0.3
		c-0.2-0.1-0.3-0.2-0.4-0.3c-0.1-0.1-0.2-0.2-0.3-0.4c-0.1-0.1-0.1-0.3-0.1-0.5c0-0.2,0-0.4,0.1-0.5c0.1-0.2,0.2-0.3,0.3-0.4
		c0.1-0.1,0.3-0.2,0.5-0.3c0.2-0.1,0.4-0.1,0.7-0.1c0.5,0,0.8,0.1,1.1,0.3c0.3,0.2,0.5,0.5,0.6,0.8l-0.4,0.2c0-0.2-0.1-0.3-0.2-0.4
		c-0.1-0.1-0.2-0.2-0.3-0.3c-0.1-0.1-0.2-0.2-0.4-0.2c-0.1,0-0.3-0.1-0.5-0.1c-0.2,0-0.3,0-0.4,0.1c-0.1,0-0.2,0.1-0.3,0.2
		c-0.1,0.1-0.1,0.1-0.2,0.2c0,0.1-0.1,0.2-0.1,0.3c0,0.1,0,0.2,0.1,0.4c0.1,0.1,0.2,0.2,0.3,0.3c0.1,0.1,0.3,0.2,0.4,0.3
		c0.2,0.1,0.3,0.2,0.5,0.3c0.2,0.1,0.3,0.2,0.5,0.3c0.2,0.1,0.3,0.2,0.4,0.3c0.1,0.1,0.2,0.2,0.3,0.4c0.1,0.1,0.1,0.3,0.1,0.5
		c0,0.2,0,0.4-0.1,0.5c-0.1,0.2-0.2,0.3-0.3,0.4c-0.1,0.1-0.3,0.2-0.6,0.3c-0.2,0.1-0.5,0.1-0.8,0.1c-0.2,0-0.4,0-0.6-0.1
		c-0.2-0.1-0.3-0.1-0.5-0.2c-0.1-0.1-0.3-0.2-0.4-0.4c-0.1-0.1-0.2-0.3-0.2-0.5l0.4-0.2c0.1,0.2,0.1,0.3,0.2,0.4
		c0.1,0.1,0.2,0.2,0.3,0.3c0.1,0.1,0.2,0.2,0.4,0.2C199,48.6,199.1,48.7,199.3,48.7z"/>
	<path class="st0" d="M206.7,44v0.3h-1.8v4.6h-0.8v-4.6h-1.8V44H206.7z"/>
	<path class="st0" d="M208.3,44h1.7c0.3,0,0.6,0,0.8,0.1c0.2,0.1,0.4,0.2,0.6,0.3c0.1,0.1,0.3,0.2,0.3,0.4c0.1,0.2,0.1,0.3,0.1,0.5
		c0,0.2,0,0.3-0.1,0.4c-0.1,0.1-0.1,0.3-0.2,0.4c-0.1,0.1-0.2,0.2-0.4,0.3s-0.3,0.1-0.5,0.2l1.8,2.4h-1l-1.7-2.3h-0.6v2.3h-0.8V44z
		 M209.1,46.3h0.5c0.2,0,0.4,0,0.5-0.1c0.2,0,0.3-0.1,0.4-0.2c0.1-0.1,0.2-0.2,0.3-0.3c0.1-0.1,0.1-0.3,0.1-0.4c0-0.1,0-0.3-0.1-0.4
		c-0.1-0.1-0.1-0.2-0.2-0.3c-0.1-0.1-0.2-0.2-0.3-0.2c-0.1,0-0.3-0.1-0.4-0.1h-0.7V46.3z"/>
	<path class="st0" d="M213.7,44l1.7,2.5l1.7-2.5h0.4l-1.9,2.8v2.1h-0.8v-2l-2-2.9H213.7z"/>
</g>
<line class="st2" x1="61" y1="60.2" x2="2.5" y2="60.2"/>
<line class="st2" x1="61" y1="62.4" x2="2.5" y2="62.4"/>
<line class="st2" x1="217" y1="60.2" x2="158.5" y2="60.2"/>
<line class="st2" x1="217" y1="62.4" x2="158.5" y2="62.4"/>
</svg>
