<svg id="dr_names" data-name="dr names" xmlns="http://www.w3.org/2000/svg" xmlns:xlink="http://www.w3.org/1999/xlink" width="145" height="76" viewBox="0 0 145 76"><defs><style>.cls-1{fill:none;}.cls-2{fill:#fff;}.cls-3{clip-path:url(#clip-path);}.cls-4{fill:url(#New_Gradient_Swatch_1);}.cls-5{clip-path:url(#clip-path-2);}.cls-6{fill:#fff200;}.cls-7{fill:#0567a7;}</style><clipPath id="clip-path" transform="translate(0)"><rect class="cls-1" x="3.16" y="2.69" width="138.99" height="56.83"/></clipPath><linearGradient id="New_Gradient_Swatch_1" x1="1.51" y1="185.04" x2="2.56" y2="185.04" gradientTransform="matrix(0, 62.98, 62.98, 0, -11581.87, -97.68)" gradientUnits="userSpaceOnUse"><stop offset="0" stop-color="#25408f"/><stop offset="0.47" stop-color="#00aeef"/><stop offset="1" stop-color="#25408f"/></linearGradient><clipPath id="clip-path-2" transform="translate(0)"><rect class="cls-1" x="3.16" y="2.69" width="138.99" height="56.83"/></clipPath></defs><title>champlain-smile-solutions_nav_logo</title><rect class="cls-2" width="145" height="76"/><g class="cls-3"><rect class="cls-4" x="3.16" y="2.45" width="138.99" height="57.79"/></g><g class="cls-5"><path class="cls-6" d="M124.24,46.62c1,0.2,1.76.38,1.76,1.35s-0.74,1.4-2,1.4a2.49,2.49,0,0,1-1.7-.48,1.92,1.92,0,0,1-.63-1.65l-1.61.25a3.23,3.23,0,0,0,1.25,2.3,4.65,4.65,0,0,0,2.62.68c2.33,0,3.55-1.29,3.55-2.67,0-1.77-1.81-2.2-2.82-2.44l-0.81-.2c-1.11-.27-2-0.52-2-1.33a1.45,1.45,0,0,1,1.67-1.24,2.63,2.63,0,0,1,1.63.5,1.5,1.5,0,0,1,.61,1.36l1.54-.2a3.34,3.34,0,0,0-3.62-2.76c-2,0-3.26,1-3.26,2.51,0,1.76,1.67,2.13,3,2.46Zm-12.93-4.88v8.45h1.43V45.37a2.34,2.34,0,0,1,.63-1.9,2.18,2.18,0,0,1,1.61-.65A1.79,1.79,0,0,1,116.8,44a4.72,4.72,0,0,1,.09,1.4v4.81h1.42v-5a6.32,6.32,0,0,0-.14-1.74,2.79,2.79,0,0,0-2.78-1.94A3,3,0,0,0,112.75,43V41.75h-1.43ZM107.87,46c0,0.86-.2,3.33-2.58,3.33-1.85,0-2.58-1.47-2.58-3.25,0-1.94.77-3.42,2.69-3.42a2.34,2.34,0,0,1,2.38,2.15,4.88,4.88,0,0,1,.09,1.18m1.56,0c0-2.31-1.27-4.48-4.07-4.48-3.28,0-4.21,2.67-4.21,4.55,0,2.22,1.24,4.41,4.16,4.41,2.58,0,4.11-1.92,4.12-4.48M97.94,50.19h1.38V41.75H97.94v8.45Zm0-11h1.38V37.53H97.94v1.65Zm-3.35-.11H93.11v2.67H91.77v1.18h1.34v5.49c0,1.11,0,1.92,1.63,1.92a9.59,9.59,0,0,0,1.38-.14V49a3.64,3.64,0,0,1-.93.2c-0.61,0-.61-0.43-0.61-1.43V42.93h1.54V41.75H94.58V39.07ZM83.29,46.7c0,1.42,0,2.15.61,2.85a2.55,2.55,0,0,0,2.06.86,3.48,3.48,0,0,0,2.89-1.51v1.29h1.42V41.75H88.85V46a3.15,3.15,0,0,1-.52,2.28,2.4,2.4,0,0,1-1.9.81,1.51,1.51,0,0,1-1.69-1.33,6.59,6.59,0,0,1,0-1.17V41.75H83.29V46.7Zm-3.71,3.5H81V37.53H79.58V50.19ZM76.12,46c0,0.86-.2,3.33-2.58,3.33C71.69,49.3,71,47.82,71,46c0-1.94.77-3.42,2.69-3.42A2.34,2.34,0,0,1,76,44.78,4.88,4.88,0,0,1,76.12,46m1.56,0c0-2.31-1.27-4.48-4.07-4.48-3.28,0-4.21,2.67-4.21,4.55,0,2.22,1.24,4.41,4.16,4.41,2.58,0,4.11-1.92,4.12-4.48m-12.84.66c1,0.2,1.76.38,1.76,1.35s-0.74,1.4-2,1.4a2.49,2.49,0,0,1-1.7-.48,1.92,1.92,0,0,1-.63-1.65l-1.61.25a3.22,3.22,0,0,0,1.25,2.3,4.65,4.65,0,0,0,2.62.68c2.33,0,3.55-1.29,3.55-2.67,0-1.77-1.81-2.2-2.81-2.44l-0.81-.2c-1.11-.27-2-0.52-2-1.33a1.45,1.45,0,0,1,1.67-1.24,2.63,2.63,0,0,1,1.63.5,1.5,1.5,0,0,1,.61,1.36l1.54-.2a3.34,3.34,0,0,0-3.62-2.76c-2,0-3.26,1-3.26,2.51,0,1.76,1.67,2.13,3,2.46ZM49.06,45.17c0.16-1.7,1.18-2.6,2.4-2.6a2.43,2.43,0,0,1,2.42,2.6H49.06ZM54,47.39a2.24,2.24,0,0,1-2.24,2c-2,0-2.76-1.76-2.72-3.17h6.42a7.63,7.63,0,0,0-.16-1.72,3.68,3.68,0,0,0-3.71-3,4.07,4.07,0,0,0-4.09,4.41c0,2.85,1.63,4.55,4.14,4.55a3.83,3.83,0,0,0,3.82-2.85Zm-9.75,2.8h1.38V37.53H44.24V50.19Zm-3.68,0h1.38V41.75H40.56v8.45Zm0-11h1.38V37.53H40.56v1.65Zm-14,2.56v8.45H28v-5a1.91,1.91,0,0,1,.56-1.72,2.48,2.48,0,0,1,1.58-.63,1.51,1.51,0,0,1,1.24.57,2.24,2.24,0,0,1,.32,1.34v5.43h1.4V45.44a2.26,2.26,0,0,1,.5-1.9,2.4,2.4,0,0,1,1.65-.72,1.45,1.45,0,0,1,1.47,1.06,5.76,5.76,0,0,1,.07,1.34v4.95h1.4V44.88a5,5,0,0,0-.23-1.94,2.54,2.54,0,0,0-2.31-1.47A4,4,0,0,0,32.81,43a2.51,2.51,0,0,0-2.3-1.56A3.23,3.23,0,0,0,28,42.88V41.75h-1.4Zm-4.93,4.88c1,0.2,1.76.38,1.76,1.35s-0.74,1.4-2,1.4a2.49,2.49,0,0,1-1.7-.48,1.92,1.92,0,0,1-.63-1.65l-1.61.25a3.23,3.23,0,0,0,1.26,2.3,4.65,4.65,0,0,0,2.62.68c2.33,0,3.55-1.29,3.55-2.67,0-1.77-1.81-2.2-2.82-2.44l-0.81-.2c-1.11-.27-2-0.52-2-1.33a1.45,1.45,0,0,1,1.67-1.24,2.63,2.63,0,0,1,1.63.5,1.5,1.5,0,0,1,.61,1.36l1.54-.2a3.34,3.34,0,0,0-3.62-2.76c-2,0-3.26,1-3.26,2.51,0,1.76,1.67,2.13,3,2.46Z" transform="translate(0)"/><path class="cls-2" d="M116.2,30.53h2.88V25.36a6.84,6.84,0,0,1,.45-3A2.5,2.5,0,0,1,121.72,21a2,2,0,0,1,2,1.59,8.45,8.45,0,0,1,.1,1.81v6.07h2.83v-7c0-1.55,0-2.83-.74-3.83a3.9,3.9,0,0,0-3.12-1.43,5,5,0,0,0-2.74.83,3.34,3.34,0,0,0-.93.93v-1.4H116.2V30.53Zm-5.91,0h2.83V18.62h-2.83V30.53Zm0-13.77h2.83V13.88h-2.83v2.88Zm-5.93,9.15a2.41,2.41,0,0,1-.17,1.07,3,3,0,0,1-2.79,1.38c-1.14,0-1.93-.48-1.93-1.41,0-1.26,1.36-1.5,2.38-1.64a8.24,8.24,0,0,0,2.5-.71v1.31Zm-4.43-3.62a1.42,1.42,0,0,1,.29-1,2.54,2.54,0,0,1,2.12-.76c2,0,2,1.22,2,1.81a27,27,0,0,1-3.69.88c-1.14.22-3,.6-3.84,2.31a3.61,3.61,0,0,0-.38,1.62c0,2,1.62,3.72,4.31,3.72a5.61,5.61,0,0,0,3.53-1.21c0,0.17,0,.64.07,0.93h3.38a2.5,2.5,0,0,1-.52-1.93V22.28c0-1.29,0-2.41-1.43-3.26a7.23,7.23,0,0,0-3.57-.76c-0.76,0-3.6,0-4.74,2.07A3.86,3.86,0,0,0,97,22.12Zm-8.5,8.24h2.88V13.71H91.42V30.53Zm-11.08-6c0-2.55,1.55-3.5,2.86-3.5,0.86,0,2.93.57,2.93,3.55,0,2.69-1.5,3.64-2.88,3.64-1.6,0-3-1.24-2.91-3.69m-2.81,9.91h2.83V29.55a4.64,4.64,0,0,0,3.26,1.33c3.19,0,5.41-2.64,5.41-6.19,0-3.29-1.91-6.43-5.41-6.43a4.21,4.21,0,0,0-3.26,1.45v-1.1H77.54V34.41ZM56.67,30.53H59.5v-5A6.74,6.74,0,0,1,60,22.33,2.56,2.56,0,0,1,62.22,21a1.82,1.82,0,0,1,1.83,1.41,5.84,5.84,0,0,1,.1,1.52v6.65H67v-5.6a5.14,5.14,0,0,1,.62-2.86,2.39,2.39,0,0,1,2-1.12c2.17,0,2,1.88,2,3v6.57h2.83V23a4.81,4.81,0,0,0-.93-3.55,4.13,4.13,0,0,0-3.14-1.21,4.64,4.64,0,0,0-3.81,1.83,3.68,3.68,0,0,0-3.31-1.83A5.11,5.11,0,0,0,59.5,20V18.62H56.67V30.53Zm-5.91-4.62A2.41,2.41,0,0,1,50.6,27a3,3,0,0,1-2.79,1.38c-1.14,0-1.93-.48-1.93-1.41,0-1.26,1.36-1.5,2.38-1.64a8.24,8.24,0,0,0,2.5-.71v1.31Zm-4.43-3.62a1.42,1.42,0,0,1,.29-1,2.54,2.54,0,0,1,2.12-.76c2,0,2,1.22,2,1.81a27,27,0,0,1-3.69.88c-1.14.22-3,.6-3.83,2.31a3.6,3.6,0,0,0-.38,1.62c0,2,1.62,3.72,4.31,3.72a5.61,5.61,0,0,0,3.53-1.21c0,0.17,0,.64.07,0.93h3.38a2.5,2.5,0,0,1-.52-1.93V22.28c0-1.29,0-2.41-1.43-3.26a7.23,7.23,0,0,0-3.57-.76c-0.76,0-3.6,0-4.74,2.07a3.87,3.87,0,0,0-.48,1.79ZM29.83,13.71V30.53h2.86V25a7.37,7.37,0,0,1,.1-1.9A3,3,0,0,1,35.66,21a2,2,0,0,1,2.07,1.31A5.08,5.08,0,0,1,37.92,24v6.55h2.81V23.17c0-1.36,0-2.57-1-3.62a4.36,4.36,0,0,0-3.26-1.29,5.2,5.2,0,0,0-3.79,1.57V13.71H29.83Zm-1.2,7.93a5.5,5.5,0,0,0-5.15-3.38,6,6,0,0,0-6,6.31c0,3.76,2.6,6.31,5.91,6.31a5.63,5.63,0,0,0,5.36-3.72L26.3,25.88a3,3,0,0,1-2.86,2.33c-1.88,0-3-1.57-3-3.72,0-2.38,1.31-3.69,3-3.69a2.78,2.78,0,0,1,2.69,2Z" transform="translate(0)"/></g><path class="cls-7" d="M18.72,63.75a3.45,3.45,0,0,1,2.46.81A3.26,3.26,0,0,1,22,67a5.6,5.6,0,0,1-.19,1.54,2.89,2.89,0,0,1-.6,1.13,2.6,2.6,0,0,1-1,.7,4.15,4.15,0,0,1-1.49.24H16.35V63.75h2.37Zm0.08,6.14,0.39,0a2.16,2.16,0,0,0,.49-0.12,2.24,2.24,0,0,0,.52-0.27A1.75,1.75,0,0,0,20.66,69,2.64,2.64,0,0,0,21,68.25a3.93,3.93,0,0,0,.13-1.09A4.64,4.64,0,0,0,21,66.06a2.12,2.12,0,0,0-.4-0.83,1.74,1.74,0,0,0-.71-0.52,2.83,2.83,0,0,0-1.07-.18H17.27v5.36H18.8Z" transform="translate(0)"/><path class="cls-7" d="M23.78,65.65v1.06h0a2.23,2.23,0,0,1,.74-0.9,1.85,1.85,0,0,1,1.1-.27v0.87a2.33,2.33,0,0,0-.84.14,1.33,1.33,0,0,0-.56.4,1.64,1.64,0,0,0-.31.63,3.43,3.43,0,0,0-.1.86v2.23H23v-5h0.77Z" transform="translate(0)"/><path class="cls-7" d="M26.88,69.54a0.87,0.87,0,0,0,.31.3,1.35,1.35,0,0,0,.43.16,2.45,2.45,0,0,0,.49,0l0.41,0a1.48,1.48,0,0,0,.39-0.11,0.74,0.74,0,0,0,.29-0.23,0.61,0.61,0,0,0,.12-0.38,0.55,0.55,0,0,0-.24-0.48,2.08,2.08,0,0,0-.61-0.27q-0.36-.1-0.79-0.18a4.08,4.08,0,0,1-.79-0.23,1.63,1.63,0,0,1-.6-0.42A1.09,1.09,0,0,1,26,67a1.2,1.2,0,0,1,.17-0.65,1.38,1.38,0,0,1,.44-0.44,2,2,0,0,1,.6-0.25,2.75,2.75,0,0,1,.66-0.08,4,4,0,0,1,.78.07,1.82,1.82,0,0,1,.63.25,1.3,1.3,0,0,1,.44.48,1.84,1.84,0,0,1,.19.76H29.14A0.84,0.84,0,0,0,29,66.7a0.83,0.83,0,0,0-.27-0.26,1.24,1.24,0,0,0-.36-0.14,1.89,1.89,0,0,0-.4,0l-0.37,0a1.25,1.25,0,0,0-.34.1,0.69,0.69,0,0,0-.25.19,0.49,0.49,0,0,0-.1.31,0.46,0.46,0,0,0,.15.35,1.2,1.2,0,0,0,.38.23,3.38,3.38,0,0,0,.52.15l0.58,0.13a6.12,6.12,0,0,1,.6.16,2,2,0,0,1,.52.26,1.26,1.26,0,0,1,.37.4,1.19,1.19,0,0,1,.14.6A1.39,1.39,0,0,1,30,70a1.47,1.47,0,0,1-.49.48,2.06,2.06,0,0,1-.69.26,4,4,0,0,1-.76.07,3.52,3.52,0,0,1-.79-0.09,2,2,0,0,1-.67-0.29,1.46,1.46,0,0,1-.46-0.52,1.81,1.81,0,0,1-.19-0.79h0.82A0.92,0.92,0,0,0,26.88,69.54Z" transform="translate(0)"/><path class="cls-7" d="M32.36,69.58v1.07H31.28V69.58h1.07Z" transform="translate(0)"/><path class="cls-7" d="M37.89,63.75l2.18,5.81,2.19-5.81h1.26v6.91H42.65V64.91h0l-2.16,5.75H39.69l-2.16-5.75h0v5.75H36.63V63.75h1.26Z" transform="translate(0)"/><path class="cls-7" d="M48.76,70.77a0.71,0.71,0,0,1-.51-0.18A0.78,0.78,0,0,1,48.06,70a2,2,0,0,1-.79.59,2.6,2.6,0,0,1-1,.18,2.69,2.69,0,0,1-.64-0.07,1.44,1.44,0,0,1-.53-0.24A1.18,1.18,0,0,1,44.77,70a1.44,1.44,0,0,1-.13-0.64,1.47,1.47,0,0,1,.15-0.7,1.27,1.27,0,0,1,.38-0.44A1.74,1.74,0,0,1,45.71,68q0.31-.09.62-0.15l0.64-.1a3.57,3.57,0,0,0,.54-0.1,0.89,0.89,0,0,0,.37-0.18A0.45,0.45,0,0,0,48,67.1a0.82,0.82,0,0,0-.1-0.44,0.7,0.7,0,0,0-.26-0.25,1.06,1.06,0,0,0-.36-0.12l-0.39,0a1.74,1.74,0,0,0-.87.2,0.84,0.84,0,0,0-.38.75H44.84A1.78,1.78,0,0,1,45,66.43a1.47,1.47,0,0,1,.46-0.52,2,2,0,0,1,.67-0.29A3.52,3.52,0,0,1,47,65.54a4.69,4.69,0,0,1,.67,0,1.76,1.76,0,0,1,.61.2,1.16,1.16,0,0,1,.44.42,1.35,1.35,0,0,1,.16.71v2.58a1.9,1.9,0,0,0,0,.43,0.2,0.2,0,0,0,.23.14,0.81,0.81,0,0,0,.25,0v0.64A1.16,1.16,0,0,1,48.76,70.77Zm-1.15-2.52-0.53.09-0.56.08a2,2,0,0,0-.5.14,0.92,0.92,0,0,0-.36.28,0.77,0.77,0,0,0-.14.49,0.67,0.67,0,0,0,.08.34,0.69,0.69,0,0,0,.21.23,0.89,0.89,0,0,0,.31.13,1.71,1.71,0,0,0,.36,0,2,2,0,0,0,.7-0.11,1.47,1.47,0,0,0,.47-0.28,1.11,1.11,0,0,0,.27-0.37A0.93,0.93,0,0,0,48,68.92V68.07A1,1,0,0,1,47.61,68.24Z" transform="translate(0)"/><path class="cls-7" d="M52.25,65.65v0.73h-1v3.11a0.87,0.87,0,0,0,0,.23,0.24,0.24,0,0,0,.09.14,0.41,0.41,0,0,0,.19.06h0.69v0.73H51.62a3,3,0,0,1-.55,0,0.81,0.81,0,0,1-.37-0.16,0.69,0.69,0,0,1-.21-0.33,1.91,1.91,0,0,1-.07-0.56V66.38H49.58V65.65h0.85v-1.5h0.82v1.5h1Z" transform="translate(0)"/><path class="cls-7" d="M55.3,65.65v0.73h-1v3.11a0.87,0.87,0,0,0,0,.23,0.24,0.24,0,0,0,.09.14,0.41,0.41,0,0,0,.19.06H55.3v0.73H54.67a3,3,0,0,1-.55,0,0.81,0.81,0,0,1-.37-0.16,0.69,0.69,0,0,1-.21-0.33,1.91,1.91,0,0,1-.07-0.56V66.38H52.63V65.65h0.85v-1.5h0.82v1.5h1Z" transform="translate(0)"/><path class="cls-7" d="M61.87,70.52a2.67,2.67,0,0,1-1.11.24,2.52,2.52,0,0,1-1.12-.21A1.87,1.87,0,0,1,59,70a1.58,1.58,0,0,1-.31-0.62,2.49,2.49,0,0,1-.07-0.53,1.83,1.83,0,0,1,.13-0.72,2,2,0,0,1,.35-0.56,2.65,2.65,0,0,1,.51-0.45,7,7,0,0,1,.62-0.37l-0.28-.39A4.36,4.36,0,0,1,59.69,66a1.81,1.81,0,0,1-.17-0.4,1.62,1.62,0,0,1-.06-0.47,1.44,1.44,0,0,1,.1-0.54,1.33,1.33,0,0,1,.3-0.46,1.44,1.44,0,0,1,.49-0.31A1.79,1.79,0,0,1,61,63.75a2.26,2.26,0,0,1,.62.09,1.59,1.59,0,0,1,.54.27,1.36,1.36,0,0,1,.37.45,1.3,1.3,0,0,1,.14.62,1.53,1.53,0,0,1-.11.58,1.82,1.82,0,0,1-.29.49,2.62,2.62,0,0,1-.42.4,4.29,4.29,0,0,1-.48.32l1.25,1.52a3.79,3.79,0,0,0,.22-1.07h0.78q0,0.31-.06.53a3.28,3.28,0,0,1-.09.4,3.08,3.08,0,0,1-.13.36l-0.18.41,1.35,1.56H63.46l-0.74-.86A1.91,1.91,0,0,1,61.87,70.52ZM60.22,67.6a2,2,0,0,0-.38.33,1.48,1.48,0,0,0-.26.41,1.37,1.37,0,0,0-.1.54,1,1,0,0,0,.11.48,1.13,1.13,0,0,0,.3.37,1.43,1.43,0,0,0,.42.24,1.4,1.4,0,0,0,.49.09,1.62,1.62,0,0,0,.85-0.22,1.94,1.94,0,0,0,.62-0.6l-1.59-1.91Zm1-1.4a2,2,0,0,0,.3-0.26,1.33,1.33,0,0,0,.22-0.32,0.91,0.91,0,0,0,.09-0.4,0.72,0.72,0,0,0-.21-0.52,0.77,0.77,0,0,0-.58-0.22,0.91,0.91,0,0,0-.54.18,0.64,0.64,0,0,0-.25.56,0.82,0.82,0,0,0,.06.31,1.84,1.84,0,0,0,.16.31c0.06,0.1.14,0.2,0.21,0.3l0.23,0.29Z" transform="translate(0)"/><path class="cls-7" d="M68.75,63.75v3.45l3.5-3.45h1.19l-2.91,2.79,3,4.13H72.4l-2.5-3.5-1.15,1.08v2.42H67.83V63.75h0.92Z" transform="translate(0)"/><path class="cls-7" d="M78,70.77a0.71,0.71,0,0,1-.51-0.18A0.78,0.78,0,0,1,77.3,70a2,2,0,0,1-.79.59,2.6,2.6,0,0,1-1,.18,2.69,2.69,0,0,1-.64-0.07,1.44,1.44,0,0,1-.53-0.24A1.18,1.18,0,0,1,74,70a1.44,1.44,0,0,1-.13-0.64,1.47,1.47,0,0,1,.15-0.7,1.27,1.27,0,0,1,.38-0.44A1.74,1.74,0,0,1,75,68q0.31-.09.62-0.15l0.64-.1a3.57,3.57,0,0,0,.54-0.1,0.89,0.89,0,0,0,.37-0.18,0.45,0.45,0,0,0,.14-0.35,0.82,0.82,0,0,0-.1-0.44,0.7,0.7,0,0,0-.26-0.25,1.06,1.06,0,0,0-.36-0.12l-0.39,0a1.74,1.74,0,0,0-.87.2,0.84,0.84,0,0,0-.38.75H74.08a1.78,1.78,0,0,1,.19-0.78,1.47,1.47,0,0,1,.46-0.52,2,2,0,0,1,.67-0.29,3.52,3.52,0,0,1,.79-0.09,4.69,4.69,0,0,1,.67,0,1.76,1.76,0,0,1,.61.2,1.16,1.16,0,0,1,.44.42,1.35,1.35,0,0,1,.16.71v2.58a1.9,1.9,0,0,0,0,.43,0.2,0.2,0,0,0,.23.14,0.81,0.81,0,0,0,.25,0v0.64A1.16,1.16,0,0,1,78,70.77Zm-1.15-2.52-0.53.09-0.56.08a2,2,0,0,0-.5.14,0.92,0.92,0,0,0-.36.28,0.77,0.77,0,0,0-.14.49,0.67,0.67,0,0,0,.08.34,0.69,0.69,0,0,0,.21.23,0.89,0.89,0,0,0,.31.13,1.71,1.71,0,0,0,.36,0,2,2,0,0,0,.7-0.11,1.47,1.47,0,0,0,.47-0.28,1.11,1.11,0,0,0,.27-0.37,0.93,0.93,0,0,0,.09-0.37V68.07A1,1,0,0,1,76.85,68.24Z" transform="translate(0)"/><path class="cls-7" d="M81,71.94a1.71,1.71,0,0,1-.31.41,1.06,1.06,0,0,1-.37.23,1.45,1.45,0,0,1-.48.07l-0.29,0a1.36,1.36,0,0,1-.28-0.07V71.81l0.24,0.08a0.8,0.8,0,0,0,.25,0,0.66,0.66,0,0,0,.41-0.12,1,1,0,0,0,.27-0.34l0.34-.84-2-5h0.93l1.46,4.1h0l1.4-4.1H83.5l-2.18,5.66A5.34,5.34,0,0,1,81,71.94Z" transform="translate(0)"/><path class="cls-7" d="M91.19,70.58a3.27,3.27,0,0,1-1.21.24,3.23,3.23,0,0,1-1.38-.29,3.12,3.12,0,0,1-1-.77,3.36,3.36,0,0,1-.65-1.11,3.89,3.89,0,0,1-.22-1.31,4.9,4.9,0,0,1,.21-1.44,3.53,3.53,0,0,1,.62-1.2,3,3,0,0,1,1-.82A3.2,3.2,0,0,1,90,63.58a4.18,4.18,0,0,1,1.06.13,2.69,2.69,0,0,1,.89.41,2.45,2.45,0,0,1,.66.71,2.81,2.81,0,0,1,.36,1H92a1.81,1.81,0,0,0-.25-0.68,1.63,1.63,0,0,0-.46-0.47,2,2,0,0,0-.61-0.28A2.83,2.83,0,0,0,90,64.36a2.1,2.1,0,0,0-1.82.92,2.89,2.89,0,0,0-.42.94,4.33,4.33,0,0,0-.14,1.08,3.48,3.48,0,0,0,.15,1,2.71,2.71,0,0,0,.46.88,2.22,2.22,0,0,0,.74.61A2.2,2.2,0,0,0,90,70a2.47,2.47,0,0,0,1-.17,2,2,0,0,0,1.13-1.2,2.36,2.36,0,0,0,.13-0.89H90V67h3v3.64H92.44l-0.24-.86A2.29,2.29,0,0,1,91.19,70.58Z" transform="translate(0)"/><path class="cls-7" d="M94.28,64.75v-1h0.82v1H94.28Zm0.82,0.9v5H94.28v-5h0.82Z" transform="translate(0)"/><path class="cls-7" d="M99.75,70.66V69.87h0a1.68,1.68,0,0,1-.67.68,2,2,0,0,1-1,.22,2.24,2.24,0,0,1-.82-0.13,1.31,1.31,0,0,1-.53-0.37,1.4,1.4,0,0,1-.29-0.58,3.08,3.08,0,0,1-.08-0.74V65.65h0.82V69a1,1,0,0,0,.27.74,1,1,0,0,0,.75.27,1.68,1.68,0,0,0,.65-0.12,1.23,1.23,0,0,0,.46-0.33,1.42,1.42,0,0,0,.28-0.5,2,2,0,0,0,.09-0.62V65.65h0.82v5H99.75Z" transform="translate(0)"/><path class="cls-7" d="M102.64,63.75v6.91h-0.82V63.75h0.82Z" transform="translate(0)"/><path class="cls-7" d="M104,64.75v-1h0.82v1H104Zm0.82,0.9v5H104v-5h0.82Z" transform="translate(0)"/><path class="cls-7" d="M109.91,70.77a0.71,0.71,0,0,1-.51-0.18,0.78,0.78,0,0,1-.19-0.59,2,2,0,0,1-.79.59,2.6,2.6,0,0,1-1,.18,2.69,2.69,0,0,1-.64-0.07,1.44,1.44,0,0,1-.53-0.24,1.18,1.18,0,0,1-.36-0.44,1.44,1.44,0,0,1-.13-0.64,1.47,1.47,0,0,1,.15-0.7,1.27,1.27,0,0,1,.38-0.44,1.74,1.74,0,0,1,.54-0.26q0.31-.09.62-0.15l0.64-.1a3.57,3.57,0,0,0,.54-0.1,0.89,0.89,0,0,0,.37-0.18,0.45,0.45,0,0,0,.14-0.35,0.82,0.82,0,0,0-.1-0.44,0.7,0.7,0,0,0-.26-0.25,1.06,1.06,0,0,0-.36-0.12l-0.39,0a1.74,1.74,0,0,0-.87.2,0.84,0.84,0,0,0-.38.75H106a1.78,1.78,0,0,1,.19-0.78,1.47,1.47,0,0,1,.46-0.52,2,2,0,0,1,.67-0.29,3.52,3.52,0,0,1,.79-0.09,4.69,4.69,0,0,1,.67,0,1.76,1.76,0,0,1,.61.2,1.16,1.16,0,0,1,.44.42,1.35,1.35,0,0,1,.16.71v2.58a1.9,1.9,0,0,0,0,.43,0.2,0.2,0,0,0,.23.14,0.81,0.81,0,0,0,.25,0v0.64A1.16,1.16,0,0,1,109.91,70.77Zm-1.15-2.52-0.53.09-0.56.08a2,2,0,0,0-.5.14,0.92,0.92,0,0,0-.36.28,0.77,0.77,0,0,0-.14.49,0.67,0.67,0,0,0,.08.34,0.69,0.69,0,0,0,.21.23,0.89,0.89,0,0,0,.31.13,1.71,1.71,0,0,0,.36,0,2,2,0,0,0,.7-0.11,1.47,1.47,0,0,0,.47-0.28,1.11,1.11,0,0,0,.27-0.37,0.93,0.93,0,0,0,.09-0.37V68.07A1,1,0,0,1,108.76,68.24Z" transform="translate(0)"/><path class="cls-7" d="M112,65.65v0.79h0a1.73,1.73,0,0,1,1.63-.91,2.18,2.18,0,0,1,.82.14,1.35,1.35,0,0,1,.53.38,1.39,1.39,0,0,1,.29.58,3.11,3.11,0,0,1,.08.74v3.29h-0.82V67.27a1,1,0,0,0-.27-0.74,1,1,0,0,0-.75-0.27,1.68,1.68,0,0,0-.65.12,1.23,1.23,0,0,0-.46.33,1.4,1.4,0,0,0-.28.5,2,2,0,0,0-.09.62v2.83h-0.82v-5H112Z" transform="translate(0)"/><path class="cls-7" d="M120.19,70.34a2.27,2.27,0,0,1-1.41.43,2.58,2.58,0,0,1-1-.19A2.06,2.06,0,0,1,117,70a2.32,2.32,0,0,1-.45-0.83,4,4,0,0,1-.17-1.06,3,3,0,0,1,.17-1,2.5,2.5,0,0,1,.49-0.82,2.21,2.21,0,0,1,.75-0.54,2.27,2.27,0,0,1,.94-0.19,2.06,2.06,0,0,1,1.11.28,2.2,2.2,0,0,1,.71.7,2.76,2.76,0,0,1,.37.93,3.92,3.92,0,0,1,.08,1h-3.75a2,2,0,0,0,.08.62,1.41,1.41,0,0,0,.28.52,1.38,1.38,0,0,0,.49.36,1.71,1.71,0,0,0,.71.14,1.42,1.42,0,0,0,.86-0.24,1.17,1.17,0,0,0,.44-0.74h0.81A2,2,0,0,1,120.19,70.34ZM120,67.13a1.41,1.41,0,0,0-.3-0.45,1.43,1.43,0,0,0-.45-0.3,1.41,1.41,0,0,0-.57-0.11,1.43,1.43,0,0,0-.58.11,1.33,1.33,0,0,0-.44.31,1.46,1.46,0,0,0-.29.45,1.7,1.7,0,0,0-.13.55h2.88A1.68,1.68,0,0,0,120,67.13Z" transform="translate(0)"/><path class="cls-7" d="M122.72,63.75v6.91H121.9V63.75h0.82Z" transform="translate(0)"/><path class="cls-7" d="M124.87,63.75v6.91H124V63.75h0.82Z" transform="translate(0)"/><path class="cls-7" d="M126.2,64.75v-1H127v1H126.2Zm0.82,0.9v5H126.2v-5H127Z" transform="translate(0)"/></svg>