<svg id="Layer_1" data-name="Layer 1" xmlns="http://www.w3.org/2000/svg" xmlns:xlink="http://www.w3.org/1999/xlink" width="145" height="76" viewBox="0 0 145 76"><defs><style>.cls-1{fill:none;}.cls-2{fill:#fff;}.cls-3{clip-path:url(#clip-path);}.cls-4{fill:url(#New_Gradient_Swatch_1);}.cls-5{clip-path:url(#clip-path-2);}.cls-6{fill:#fff200;}.cls-7{fill:#0066a6;}</style><clipPath id="clip-path" transform="translate(0)"><rect class="cls-1" x="3.16" y="2.69" width="138.99" height="56.83"/></clipPath><linearGradient id="New_Gradient_Swatch_1" x1="1.51" y1="185.04" x2="2.56" y2="185.04" gradientTransform="matrix(0, 62.98, 62.98, 0, -11581.87, -97.68)" gradientUnits="userSpaceOnUse"><stop offset="0" stop-color="#25408f"/><stop offset="0.47" stop-color="#00aeef"/><stop offset="1" stop-color="#25408f"/></linearGradient><clipPath id="clip-path-2" transform="translate(0)"><rect class="cls-1" x="3.16" y="2.69" width="138.99" height="56.83"/></clipPath></defs><title>champlain-smile-solutions_logo</title><rect class="cls-2" width="145" height="76"/><g class="cls-3"><rect class="cls-4" x="3.16" y="2.45" width="138.99" height="57.79"/></g><g class="cls-5"><path class="cls-6" d="M124.24,46.62c1,0.2,1.76.38,1.76,1.35s-0.74,1.4-2,1.4a2.49,2.49,0,0,1-1.7-.48,1.92,1.92,0,0,1-.63-1.65l-1.61.25a3.23,3.23,0,0,0,1.25,2.3,4.65,4.65,0,0,0,2.62.68c2.33,0,3.55-1.29,3.55-2.67,0-1.77-1.81-2.2-2.82-2.44l-0.81-.2c-1.11-.27-2-0.52-2-1.33a1.45,1.45,0,0,1,1.67-1.24,2.63,2.63,0,0,1,1.63.5,1.5,1.5,0,0,1,.61,1.36l1.54-.2a3.34,3.34,0,0,0-3.62-2.76c-2,0-3.26,1-3.26,2.51,0,1.76,1.67,2.13,3,2.46Zm-12.93-4.88v8.45h1.43V45.37a2.34,2.34,0,0,1,.63-1.9,2.18,2.18,0,0,1,1.61-.65A1.79,1.79,0,0,1,116.8,44a4.72,4.72,0,0,1,.09,1.4v4.81h1.42v-5a6.32,6.32,0,0,0-.14-1.74,2.79,2.79,0,0,0-2.78-1.94A3,3,0,0,0,112.75,43V41.75h-1.43ZM107.87,46c0,0.86-.2,3.33-2.58,3.33-1.85,0-2.58-1.47-2.58-3.25,0-1.94.77-3.42,2.69-3.42a2.34,2.34,0,0,1,2.38,2.15,4.88,4.88,0,0,1,.09,1.18m1.56,0c0-2.31-1.27-4.48-4.07-4.48-3.28,0-4.21,2.67-4.21,4.55,0,2.22,1.24,4.41,4.16,4.41,2.58,0,4.11-1.92,4.12-4.48M97.94,50.19h1.38V41.75H97.94v8.45Zm0-11h1.38V37.53H97.94v1.65Zm-3.35-.11H93.11v2.67H91.77v1.18h1.34v5.49c0,1.11,0,1.92,1.63,1.92a9.59,9.59,0,0,0,1.38-.14V49a3.64,3.64,0,0,1-.93.2c-0.61,0-.61-0.43-0.61-1.43V42.93h1.54V41.75H94.58V39.07ZM83.29,46.7c0,1.42,0,2.15.61,2.85a2.55,2.55,0,0,0,2.06.86,3.48,3.48,0,0,0,2.89-1.51v1.29h1.42V41.75H88.85V46a3.15,3.15,0,0,1-.52,2.28,2.4,2.4,0,0,1-1.9.81,1.51,1.51,0,0,1-1.69-1.33,6.59,6.59,0,0,1,0-1.17V41.75H83.29V46.7Zm-3.71,3.5H81V37.53H79.58V50.19ZM76.12,46c0,0.86-.2,3.33-2.58,3.33C71.69,49.3,71,47.82,71,46c0-1.94.77-3.42,2.69-3.42A2.34,2.34,0,0,1,76,44.78,4.88,4.88,0,0,1,76.12,46m1.56,0c0-2.31-1.27-4.48-4.07-4.48-3.28,0-4.21,2.67-4.21,4.55,0,2.22,1.24,4.41,4.16,4.41,2.58,0,4.11-1.92,4.12-4.48m-12.84.66c1,0.2,1.76.38,1.76,1.35s-0.74,1.4-2,1.4a2.49,2.49,0,0,1-1.7-.48,1.92,1.92,0,0,1-.63-1.65l-1.61.25a3.22,3.22,0,0,0,1.25,2.3,4.65,4.65,0,0,0,2.62.68c2.33,0,3.55-1.29,3.55-2.67,0-1.77-1.81-2.2-2.81-2.44l-0.81-.2c-1.11-.27-2-0.52-2-1.33a1.45,1.45,0,0,1,1.67-1.24,2.63,2.63,0,0,1,1.63.5,1.5,1.5,0,0,1,.61,1.36l1.54-.2a3.34,3.34,0,0,0-3.62-2.76c-2,0-3.26,1-3.26,2.51,0,1.76,1.67,2.13,3,2.46ZM49.06,45.17c0.16-1.7,1.18-2.6,2.4-2.6a2.43,2.43,0,0,1,2.42,2.6H49.06ZM54,47.39a2.24,2.24,0,0,1-2.24,2c-2,0-2.76-1.76-2.72-3.17h6.42a7.63,7.63,0,0,0-.16-1.72,3.68,3.68,0,0,0-3.71-3,4.07,4.07,0,0,0-4.09,4.41c0,2.85,1.63,4.55,4.14,4.55a3.83,3.83,0,0,0,3.82-2.85Zm-9.75,2.8h1.38V37.53H44.24V50.19Zm-3.68,0h1.38V41.75H40.56v8.45Zm0-11h1.38V37.53H40.56v1.65Zm-14,2.56v8.45H28v-5a1.91,1.91,0,0,1,.56-1.72,2.48,2.48,0,0,1,1.58-.63,1.51,1.51,0,0,1,1.24.57,2.24,2.24,0,0,1,.32,1.34v5.43h1.4V45.44a2.26,2.26,0,0,1,.5-1.9,2.4,2.4,0,0,1,1.65-.72,1.45,1.45,0,0,1,1.47,1.06,5.76,5.76,0,0,1,.07,1.34v4.95h1.4V44.88a5,5,0,0,0-.23-1.94,2.54,2.54,0,0,0-2.31-1.47A4,4,0,0,0,32.81,43a2.51,2.51,0,0,0-2.3-1.56A3.23,3.23,0,0,0,28,42.88V41.75h-1.4Zm-4.93,4.88c1,0.2,1.76.38,1.76,1.35s-0.74,1.4-2,1.4a2.49,2.49,0,0,1-1.7-.48,1.92,1.92,0,0,1-.63-1.65l-1.61.25a3.23,3.23,0,0,0,1.26,2.3,4.65,4.65,0,0,0,2.62.68c2.33,0,3.55-1.29,3.55-2.67,0-1.77-1.81-2.2-2.82-2.44l-0.81-.2c-1.11-.27-2-0.52-2-1.33a1.45,1.45,0,0,1,1.67-1.24,2.63,2.63,0,0,1,1.63.5,1.5,1.5,0,0,1,.61,1.36l1.54-.2a3.34,3.34,0,0,0-3.62-2.76c-2,0-3.26,1-3.26,2.51,0,1.76,1.67,2.13,3,2.46Z" transform="translate(0)"/><path class="cls-2" d="M116.2,30.53h2.88V25.36a6.84,6.84,0,0,1,.45-3A2.5,2.5,0,0,1,121.72,21a2,2,0,0,1,2,1.59,8.45,8.45,0,0,1,.1,1.81v6.07h2.83v-7c0-1.55,0-2.83-.74-3.83a3.9,3.9,0,0,0-3.12-1.43,5,5,0,0,0-2.74.83,3.34,3.34,0,0,0-.93.93v-1.4H116.2V30.53Zm-5.91,0h2.83V18.62h-2.83V30.53Zm0-13.77h2.83V13.88h-2.83v2.88Zm-5.93,9.15a2.41,2.41,0,0,1-.17,1.07,3,3,0,0,1-2.79,1.38c-1.14,0-1.93-.48-1.93-1.41,0-1.26,1.36-1.5,2.38-1.64a8.24,8.24,0,0,0,2.5-.71v1.31Zm-4.43-3.62a1.42,1.42,0,0,1,.29-1,2.54,2.54,0,0,1,2.12-.76c2,0,2,1.22,2,1.81a27,27,0,0,1-3.69.88c-1.14.22-3,.6-3.84,2.31a3.61,3.61,0,0,0-.38,1.62c0,2,1.62,3.72,4.31,3.72a5.61,5.61,0,0,0,3.53-1.21c0,0.17,0,.64.07,0.93h3.38a2.5,2.5,0,0,1-.52-1.93V22.28c0-1.29,0-2.41-1.43-3.26a7.23,7.23,0,0,0-3.57-.76c-0.76,0-3.6,0-4.74,2.07A3.86,3.86,0,0,0,97,22.12Zm-8.5,8.24h2.88V13.71H91.42V30.53Zm-11.08-6c0-2.55,1.55-3.5,2.86-3.5,0.86,0,2.93.57,2.93,3.55,0,2.69-1.5,3.64-2.88,3.64-1.6,0-3-1.24-2.91-3.69m-2.81,9.91h2.83V29.55a4.64,4.64,0,0,0,3.26,1.33c3.19,0,5.41-2.64,5.41-6.19,0-3.29-1.91-6.43-5.41-6.43a4.21,4.21,0,0,0-3.26,1.45v-1.1H77.54V34.41ZM56.67,30.53H59.5v-5A6.74,6.74,0,0,1,60,22.33,2.56,2.56,0,0,1,62.22,21a1.82,1.82,0,0,1,1.83,1.41,5.84,5.84,0,0,1,.1,1.52v6.65H67v-5.6a5.14,5.14,0,0,1,.62-2.86,2.39,2.39,0,0,1,2-1.12c2.17,0,2,1.88,2,3v6.57h2.83V23a4.81,4.81,0,0,0-.93-3.55,4.13,4.13,0,0,0-3.14-1.21,4.64,4.64,0,0,0-3.81,1.83,3.68,3.68,0,0,0-3.31-1.83A5.11,5.11,0,0,0,59.5,20V18.62H56.67V30.53Zm-5.91-4.62A2.41,2.41,0,0,1,50.6,27a3,3,0,0,1-2.79,1.38c-1.14,0-1.93-.48-1.93-1.41,0-1.26,1.36-1.5,2.38-1.64a8.24,8.24,0,0,0,2.5-.71v1.31Zm-4.43-3.62a1.42,1.42,0,0,1,.29-1,2.54,2.54,0,0,1,2.12-.76c2,0,2,1.22,2,1.81a27,27,0,0,1-3.69.88c-1.14.22-3,.6-3.83,2.31a3.6,3.6,0,0,0-.38,1.62c0,2,1.62,3.72,4.31,3.72a5.61,5.61,0,0,0,3.53-1.21c0,0.17,0,.64.07,0.93h3.38a2.5,2.5,0,0,1-.52-1.93V22.28c0-1.29,0-2.41-1.43-3.26a7.23,7.23,0,0,0-3.57-.76c-0.76,0-3.6,0-4.74,2.07a3.87,3.87,0,0,0-.48,1.79ZM29.83,13.71V30.53h2.86V25a7.37,7.37,0,0,1,.1-1.9A3,3,0,0,1,35.66,21a2,2,0,0,1,2.07,1.31A5.08,5.08,0,0,1,37.92,24v6.55h2.81V23.17c0-1.36,0-2.57-1-3.62a4.36,4.36,0,0,0-3.26-1.29,5.2,5.2,0,0,0-3.79,1.57V13.71H29.83Zm-1.2,7.93a5.5,5.5,0,0,0-5.15-3.38,6,6,0,0,0-6,6.31c0,3.76,2.6,6.31,5.91,6.31a5.63,5.63,0,0,0,5.36-3.72L26.3,25.88a3,3,0,0,1-2.86,2.33c-1.88,0-3-1.57-3-3.72,0-2.38,1.31-3.69,3-3.69a2.78,2.78,0,0,1,2.69,2Z" transform="translate(0)"/></g><path class="cls-7" d="M19.73,71V70.23h0a1.3,1.3,0,0,1-.68.64,2.61,2.61,0,0,1-1,.2,2.42,2.42,0,0,1-1.08-.23,2.22,2.22,0,0,1-.77-0.61,2.66,2.66,0,0,1-.46-0.89,3.68,3.68,0,0,1-.16-1.08,3.78,3.78,0,0,1,.15-1.08,2.54,2.54,0,0,1,.46-0.89,2.21,2.21,0,0,1,.77-0.6A2.44,2.44,0,0,1,18,65.48a2.64,2.64,0,0,1,.45,0,2.3,2.3,0,0,1,.48.14,2.05,2.05,0,0,1,.45.26,1.43,1.43,0,0,1,.36.4h0V63.56h0.88V71H19.73Zm-3.17-1.9a2,2,0,0,0,.3.64,1.47,1.47,0,0,0,.52.45,1.57,1.57,0,0,0,.74.17,1.45,1.45,0,0,0,1.26-.64A1.93,1.93,0,0,0,19.67,69a3.14,3.14,0,0,0,0-1.5,1.89,1.89,0,0,0-.3-0.65,1.51,1.51,0,0,0-.52-0.45,1.64,1.64,0,0,0-.78-0.17,1.51,1.51,0,0,0-.76.18,1.41,1.41,0,0,0-.5.47,2,2,0,0,0-.27.66,3.53,3.53,0,0,0-.08.77A2.73,2.73,0,0,0,16.56,69.06Z" transform="translate(0)"/><path class="cls-7" d="M25.76,70.62a2.43,2.43,0,0,1-1.51.46,2.75,2.75,0,0,1-1.11-.21,2.2,2.2,0,0,1-.79-0.58,2.47,2.47,0,0,1-.48-0.89,4.28,4.28,0,0,1-.18-1.13,3.22,3.22,0,0,1,.19-1.12,2.68,2.68,0,0,1,.52-0.88,2.37,2.37,0,0,1,.8-0.58,2.44,2.44,0,0,1,1-.21,2.2,2.2,0,0,1,1.19.3,2.35,2.35,0,0,1,.76.75,3,3,0,0,1,.39,1,4.26,4.26,0,0,1,.09,1h-4a2.13,2.13,0,0,0,.08.67,1.51,1.51,0,0,0,.3.56,1.48,1.48,0,0,0,.53.39,1.82,1.82,0,0,0,.76.15A1.53,1.53,0,0,0,25.2,70a1.25,1.25,0,0,0,.47-0.79h0.87A2.14,2.14,0,0,1,25.76,70.62Zm-0.21-3.44a1.49,1.49,0,0,0-.8-0.8,1.51,1.51,0,0,0-.61-0.12,1.53,1.53,0,0,0-.62.12,1.42,1.42,0,0,0-.47.33,1.56,1.56,0,0,0-.31.48,1.84,1.84,0,0,0-.14.59h3.08A1.81,1.81,0,0,0,25.55,67.18Z" transform="translate(0)"/><path class="cls-7" d="M28.36,65.6v0.85h0a1.86,1.86,0,0,1,1.74-1,2.33,2.33,0,0,1,.88.15,1.45,1.45,0,0,1,.57.4,1.5,1.5,0,0,1,.31.62,3.32,3.32,0,0,1,.09.79V71H31.09V67.33a1.06,1.06,0,0,0-.29-0.79,1.08,1.08,0,0,0-.8-0.29,1.79,1.79,0,0,0-.7.12,1.31,1.31,0,0,0-.49.35,1.52,1.52,0,0,0-.3.53,2.17,2.17,0,0,0-.1.67v3H27.54V65.6h0.83Z" transform="translate(0)"/><path class="cls-7" d="M35.59,65.6v0.78H34.52v3.33a0.94,0.94,0,0,0,0,.25,0.25,0.25,0,0,0,.1.15,0.43,0.43,0,0,0,.2.07l0.34,0h0.4V71H34.92a3.19,3.19,0,0,1-.59,0,0.86,0.86,0,0,1-.39-0.17,0.73,0.73,0,0,1-.22-0.35,2,2,0,0,1-.07-0.6V66.38H32.73V65.6h0.91V64h0.88V65.6h1.07Z" transform="translate(0)"/><path class="cls-7" d="M40.68,71.07a0.76,0.76,0,0,1-.54-0.19,0.83,0.83,0,0,1-.2-0.63,2.11,2.11,0,0,1-.84.63,2.79,2.79,0,0,1-1,.19A2.91,2.91,0,0,1,37.36,71a1.54,1.54,0,0,1-.56-0.26,1.26,1.26,0,0,1-.38-0.47,1.55,1.55,0,0,1-.14-0.69,1.58,1.58,0,0,1,.16-0.75,1.36,1.36,0,0,1,.41-0.47,1.88,1.88,0,0,1,.58-0.27q0.33-.09.67-0.16t0.69-.11a3.84,3.84,0,0,0,.58-0.1,1,1,0,0,0,.39-0.2,0.48,0.48,0,0,0,.15-0.38,0.88,0.88,0,0,0-.11-0.47,0.75,0.75,0,0,0-.28-0.27,1.12,1.12,0,0,0-.38-0.12,2.89,2.89,0,0,0-.42,0,1.86,1.86,0,0,0-.93.21,0.9,0.9,0,0,0-.4.8H36.48a1.91,1.91,0,0,1,.21-0.84,1.57,1.57,0,0,1,.5-0.55,2.08,2.08,0,0,1,.72-0.31,3.79,3.79,0,0,1,.85-0.09,5,5,0,0,1,.72.05,1.9,1.9,0,0,1,.65.21,1.25,1.25,0,0,1,.47.45,1.44,1.44,0,0,1,.18.76v2.76a2.05,2.05,0,0,0,0,.46,0.21,0.21,0,0,0,.24.15,0.87,0.87,0,0,0,.27-0.05v0.68A1.25,1.25,0,0,1,40.68,71.07Zm-1.23-2.7-0.56.09-0.6.08a2.22,2.22,0,0,0-.54.15,1,1,0,0,0-.39.3,0.83,0.83,0,0,0-.15.52,0.71,0.71,0,0,0,.09.37,0.73,0.73,0,0,0,.23.24,1,1,0,0,0,.33.13,1.82,1.82,0,0,0,.39,0A2.09,2.09,0,0,0,39,70.19a1.57,1.57,0,0,0,.51-0.3,1.18,1.18,0,0,0,.29-0.39,1,1,0,0,0,.09-0.4v-0.9A1.09,1.09,0,0,1,39.44,68.37Z" transform="translate(0)"/><path class="cls-7" d="M43.06,63.56V71H42.18v-7.4h0.88Z" transform="translate(0)"/><path class="cls-7" d="M50.51,66.53a1.34,1.34,0,0,0-.89-0.28,1.64,1.64,0,0,0-.8.18,1.43,1.43,0,0,0-.51.47,2,2,0,0,0-.27.67,3.65,3.65,0,0,0-.08.78,3,3,0,0,0,.09.73,1.94,1.94,0,0,0,.27.63,1.39,1.39,0,0,0,.49.44A1.67,1.67,0,0,0,50.54,70,1.54,1.54,0,0,0,51,69h0.9a2.47,2.47,0,0,1-.74,1.53,2.33,2.33,0,0,1-1.62.54,2.8,2.8,0,0,1-1.08-.2,2.1,2.1,0,0,1-.79-0.56,2.41,2.41,0,0,1-.48-0.87,3.6,3.6,0,0,1-.16-1.1,4,4,0,0,1,.16-1.12,2.61,2.61,0,0,1,.47-0.91,2.22,2.22,0,0,1,.79-0.61,2.6,2.6,0,0,1,1.11-.22,3.25,3.25,0,0,1,.86.11,2.09,2.09,0,0,1,.7.34,1.85,1.85,0,0,1,.5.57,2.12,2.12,0,0,1,.25.82H50.95A1.34,1.34,0,0,0,50.51,66.53Z" transform="translate(0)"/><path class="cls-7" d="M57,71.07a0.76,0.76,0,0,1-.54-0.19,0.83,0.83,0,0,1-.2-0.63,2.11,2.11,0,0,1-.84.63,2.79,2.79,0,0,1-1,.19A2.91,2.91,0,0,1,53.67,71a1.54,1.54,0,0,1-.56-0.26,1.26,1.26,0,0,1-.38-0.47,1.55,1.55,0,0,1-.14-0.69,1.58,1.58,0,0,1,.16-0.75,1.36,1.36,0,0,1,.41-0.47,1.88,1.88,0,0,1,.58-0.27q0.33-.09.67-0.16t0.69-.11a3.84,3.84,0,0,0,.58-0.1,1,1,0,0,0,.39-0.2,0.48,0.48,0,0,0,.15-0.38,0.88,0.88,0,0,0-.11-0.47,0.75,0.75,0,0,0-.28-0.27,1.12,1.12,0,0,0-.38-0.12,2.89,2.89,0,0,0-.42,0,1.86,1.86,0,0,0-.93.21,0.9,0.9,0,0,0-.4.8H52.79A1.91,1.91,0,0,1,53,66.43a1.57,1.57,0,0,1,.5-0.55,2.08,2.08,0,0,1,.72-0.31,3.79,3.79,0,0,1,.85-0.09,5,5,0,0,1,.72.05,1.9,1.9,0,0,1,.65.21,1.25,1.25,0,0,1,.47.45,1.44,1.44,0,0,1,.18.76v2.76a2.05,2.05,0,0,0,0,.46,0.21,0.21,0,0,0,.24.15,0.87,0.87,0,0,0,.27-0.05v0.68A1.25,1.25,0,0,1,57,71.07Zm-1.23-2.7-0.56.09-0.6.08a2.22,2.22,0,0,0-.54.15,1,1,0,0,0-.39.3,0.83,0.83,0,0,0-.15.52,0.71,0.71,0,0,0,.09.37,0.73,0.73,0,0,0,.23.24,1,1,0,0,0,.33.13,1.82,1.82,0,0,0,.39,0,2.09,2.09,0,0,0,.75-0.12,1.57,1.57,0,0,0,.51-0.3,1.18,1.18,0,0,0,.29-0.39,1,1,0,0,0,.09-0.4v-0.9A1.09,1.09,0,0,1,55.76,68.37Z" transform="translate(0)"/><path class="cls-7" d="M59.24,65.6v1.13h0a2.38,2.38,0,0,1,.79-1,2,2,0,0,1,1.18-.29v0.93a2.5,2.5,0,0,0-.9.15,1.42,1.42,0,0,0-.6.43,1.76,1.76,0,0,0-.33.68,3.65,3.65,0,0,0-.1.92V71H58.41V65.6h0.83Z" transform="translate(0)"/><path class="cls-7" d="M65.5,70.62a2.43,2.43,0,0,1-1.51.46,2.75,2.75,0,0,1-1.11-.21,2.2,2.2,0,0,1-.79-0.58,2.47,2.47,0,0,1-.48-0.89,4.28,4.28,0,0,1-.18-1.13,3.22,3.22,0,0,1,.19-1.12,2.68,2.68,0,0,1,.52-0.88,2.37,2.37,0,0,1,.8-0.58,2.44,2.44,0,0,1,1-.21,2.2,2.2,0,0,1,1.19.3,2.35,2.35,0,0,1,.76.75,3,3,0,0,1,.39,1,4.26,4.26,0,0,1,.09,1h-4a2.13,2.13,0,0,0,.08.67,1.51,1.51,0,0,0,.3.56,1.48,1.48,0,0,0,.53.39,1.82,1.82,0,0,0,.76.15A1.53,1.53,0,0,0,64.94,70a1.25,1.25,0,0,0,.47-0.79h0.87A2.14,2.14,0,0,1,65.5,70.62Zm-0.21-3.44a1.49,1.49,0,0,0-.8-0.8,1.51,1.51,0,0,0-.61-0.12,1.53,1.53,0,0,0-.62.12,1.42,1.42,0,0,0-.47.33,1.56,1.56,0,0,0-.31.48,1.84,1.84,0,0,0-.14.59h3.08A1.81,1.81,0,0,0,65.29,67.18Z" transform="translate(0)"/><path class="cls-7" d="M72,72.33a1.83,1.83,0,0,1-.33.44,1.13,1.13,0,0,1-.4.25,1.54,1.54,0,0,1-.52.08l-0.31,0a1.5,1.5,0,0,1-.3-0.07V72.19l0.25,0.08a0.87,0.87,0,0,0,.26,0A0.71,0.71,0,0,0,71,72.19a1,1,0,0,0,.29-0.36l0.36-.9L69.57,65.6h1L72.13,70h0l1.5-4.38h0.93l-2.33,6.06A5.64,5.64,0,0,1,72,72.33Z" transform="translate(0)"/><path class="cls-7" d="M75.21,67.18a2.49,2.49,0,0,1,.5-0.89,2.35,2.35,0,0,1,.82-0.6,3,3,0,0,1,2.24,0,2.37,2.37,0,0,1,.81.6,2.51,2.51,0,0,1,.5.89,3.58,3.58,0,0,1,.17,1.1,3.53,3.53,0,0,1-.17,1.1,2.52,2.52,0,0,1-.5.89,2.29,2.29,0,0,1-.81.59,3.07,3.07,0,0,1-2.24,0,2.28,2.28,0,0,1-.82-0.59,2.5,2.5,0,0,1-.5-0.89,3.51,3.51,0,0,1-.17-1.1A3.56,3.56,0,0,1,75.21,67.18Zm0.9,2a1.82,1.82,0,0,0,.36.63,1.56,1.56,0,0,0,.53.39,1.63,1.63,0,0,0,1.3,0,1.56,1.56,0,0,0,.53-0.39,1.81,1.81,0,0,0,.36-0.63,3,3,0,0,0,0-1.73,1.86,1.86,0,0,0-.36-0.64,1.52,1.52,0,0,0-.53-0.39,1.63,1.63,0,0,0-1.3,0,1.52,1.52,0,0,0-.53.39,1.87,1.87,0,0,0-.36.64A3,3,0,0,0,76.11,69.15Z" transform="translate(0)"/><path class="cls-7" d="M84.89,71V70.11h0a1.8,1.8,0,0,1-.72.73,2.14,2.14,0,0,1-1,.23,2.41,2.41,0,0,1-.88-0.14,1.41,1.41,0,0,1-.57-0.4,1.5,1.5,0,0,1-.31-0.62,3.32,3.32,0,0,1-.09-0.79V65.6h0.88v3.63a1.06,1.06,0,0,0,.29.79,1.08,1.08,0,0,0,.8.29,1.79,1.79,0,0,0,.7-0.12,1.31,1.31,0,0,0,.49-0.35,1.52,1.52,0,0,0,.3-0.53,2.18,2.18,0,0,0,.1-0.67v-3h0.88V71H84.89Z" transform="translate(0)"/><path class="cls-7" d="M93.13,66.53a1.34,1.34,0,0,0-.89-0.28,1.64,1.64,0,0,0-.8.18,1.43,1.43,0,0,0-.51.47,2,2,0,0,0-.27.67,3.65,3.65,0,0,0-.08.78,3,3,0,0,0,.09.73,1.94,1.94,0,0,0,.27.63,1.39,1.39,0,0,0,.49.44A1.67,1.67,0,0,0,93.16,70a1.54,1.54,0,0,0,.45-1h0.9a2.47,2.47,0,0,1-.74,1.53,2.33,2.33,0,0,1-1.62.54,2.8,2.8,0,0,1-1.08-.2,2.1,2.1,0,0,1-.79-0.56,2.41,2.41,0,0,1-.48-0.87,3.6,3.6,0,0,1-.16-1.1,4,4,0,0,1,.16-1.12,2.61,2.61,0,0,1,.47-0.91,2.22,2.22,0,0,1,.79-0.61,2.6,2.6,0,0,1,1.11-.22,3.25,3.25,0,0,1,.86.11,2.09,2.09,0,0,1,.7.34,1.85,1.85,0,0,1,.5.57,2.12,2.12,0,0,1,.25.82H93.57A1.34,1.34,0,0,0,93.13,66.53Z" transform="translate(0)"/><path class="cls-7" d="M99.61,71.07a0.76,0.76,0,0,1-.54-0.19,0.83,0.83,0,0,1-.2-0.63,2.11,2.11,0,0,1-.84.63,2.79,2.79,0,0,1-1,.19A2.91,2.91,0,0,1,96.29,71a1.54,1.54,0,0,1-.56-0.26,1.26,1.26,0,0,1-.38-0.47,1.55,1.55,0,0,1-.14-0.69,1.58,1.58,0,0,1,.16-0.75,1.36,1.36,0,0,1,.41-0.47,1.88,1.88,0,0,1,.58-0.27q0.33-.09.67-0.16t0.69-.11a3.84,3.84,0,0,0,.58-0.1,1,1,0,0,0,.39-0.2,0.48,0.48,0,0,0,.15-0.38,0.88,0.88,0,0,0-.11-0.47,0.75,0.75,0,0,0-.28-0.27,1.12,1.12,0,0,0-.38-0.12,2.89,2.89,0,0,0-.42,0,1.86,1.86,0,0,0-.93.21,0.9,0.9,0,0,0-.4.8H95.41a1.91,1.91,0,0,1,.21-0.84,1.57,1.57,0,0,1,.5-0.55,2.08,2.08,0,0,1,.72-0.31,3.79,3.79,0,0,1,.85-0.09,5,5,0,0,1,.72.05,1.9,1.9,0,0,1,.65.21,1.25,1.25,0,0,1,.47.45,1.44,1.44,0,0,1,.18.76v2.76a2.05,2.05,0,0,0,0,.46,0.21,0.21,0,0,0,.24.15,0.87,0.87,0,0,0,.27-0.05v0.68A1.25,1.25,0,0,1,99.61,71.07Zm-1.23-2.7-0.56.09-0.6.08a2.22,2.22,0,0,0-.54.15,1,1,0,0,0-.39.3,0.83,0.83,0,0,0-.15.52,0.71,0.71,0,0,0,.09.37,0.73,0.73,0,0,0,.23.24,1,1,0,0,0,.33.13,1.82,1.82,0,0,0,.39,0,2.09,2.09,0,0,0,.75-0.12,1.57,1.57,0,0,0,.51-0.3,1.18,1.18,0,0,0,.29-0.39,1,1,0,0,0,.09-0.4v-0.9A1.09,1.09,0,0,1,98.38,68.37Z" transform="translate(0)"/><path class="cls-7" d="M101.89,65.6v0.85h0a1.86,1.86,0,0,1,1.74-1,2.33,2.33,0,0,1,.88.15,1.45,1.45,0,0,1,.57.4,1.5,1.5,0,0,1,.31.62,3.32,3.32,0,0,1,.09.79V71h-0.88V67.33a1.06,1.06,0,0,0-.29-0.79,1.08,1.08,0,0,0-.8-0.29,1.79,1.79,0,0,0-.7.12,1.31,1.31,0,0,0-.49.35,1.52,1.52,0,0,0-.3.53,2.17,2.17,0,0,0-.1.67v3h-0.88V65.6h0.83Z" transform="translate(0)"/><path class="cls-7" d="M112,65.6v0.78h-1.07v3.33a0.94,0.94,0,0,0,0,.25,0.25,0.25,0,0,0,.1.15,0.43,0.43,0,0,0,.2.07l0.34,0H112V71h-0.67a3.19,3.19,0,0,1-.59,0,0.86,0.86,0,0,1-.39-0.17,0.73,0.73,0,0,1-.22-0.35,2,2,0,0,1-.07-0.6V66.38h-0.91V65.6H110V64h0.88V65.6H112Z" transform="translate(0)"/><path class="cls-7" d="M113.77,65.6v1.13h0a2.39,2.39,0,0,1,.79-1,2,2,0,0,1,1.18-.29v0.93a2.5,2.5,0,0,0-.9.15,1.42,1.42,0,0,0-.6.43,1.76,1.76,0,0,0-.33.68,3.68,3.68,0,0,0-.1.92V71h-0.88V65.6h0.83Z" transform="translate(0)"/><path class="cls-7" d="M120,71V70.11h0a1.8,1.8,0,0,1-.71.73,2.14,2.14,0,0,1-1,.23,2.41,2.41,0,0,1-.88-0.14,1.41,1.41,0,0,1-.57-0.4,1.5,1.5,0,0,1-.31-0.62,3.32,3.32,0,0,1-.09-0.79V65.6h0.88v3.63a1.06,1.06,0,0,0,.29.79,1.08,1.08,0,0,0,.8.29,1.8,1.8,0,0,0,.7-0.12,1.31,1.31,0,0,0,.49-0.35,1.51,1.51,0,0,0,.3-0.53,2.17,2.17,0,0,0,.1-0.67v-3h0.88V71H120Z" transform="translate(0)"/><path class="cls-7" d="M122.86,69.76a0.94,0.94,0,0,0,.33.32,1.45,1.45,0,0,0,.46.17,2.59,2.59,0,0,0,.52.05l0.44,0a1.6,1.6,0,0,0,.42-0.11,0.79,0.79,0,0,0,.32-0.24,0.65,0.65,0,0,0,.12-0.41A0.59,0.59,0,0,0,125.2,69a2.21,2.21,0,0,0-.65-0.28q-0.39-.11-0.84-0.2a4.32,4.32,0,0,1-.85-0.25,1.76,1.76,0,0,1-.65-0.45A1.17,1.17,0,0,1,122,67a1.28,1.28,0,0,1,.18-0.69,1.47,1.47,0,0,1,.47-0.47,2.15,2.15,0,0,1,.64-0.27,3,3,0,0,1,.71-0.09,4.21,4.21,0,0,1,.84.08,2,2,0,0,1,.68.27,1.4,1.4,0,0,1,.47.52,2,2,0,0,1,.21.81h-0.88a0.9,0.9,0,0,0-.13-0.43,0.89,0.89,0,0,0-.29-0.27,1.33,1.33,0,0,0-.39-0.15,2,2,0,0,0-.43,0,2.62,2.62,0,0,0-.4,0,1.31,1.31,0,0,0-.37.11,0.74,0.74,0,0,0-.27.21,0.53,0.53,0,0,0-.1.34,0.49,0.49,0,0,0,.16.38,1.27,1.27,0,0,0,.41.25,3.53,3.53,0,0,0,.56.17l0.62,0.14a6.69,6.69,0,0,1,.65.18,2.12,2.12,0,0,1,.56.27,1.34,1.34,0,0,1,.39.43,1.26,1.26,0,0,1,.15.64,1.49,1.49,0,0,1-.2.81,1.58,1.58,0,0,1-.53.52,2.23,2.23,0,0,1-.74.27,4.38,4.38,0,0,1-.81.08,3.76,3.76,0,0,1-.85-0.09,2.08,2.08,0,0,1-.72-0.31,1.56,1.56,0,0,1-.5-0.56,1.94,1.94,0,0,1-.21-0.84h0.88A1,1,0,0,0,122.86,69.76Z" transform="translate(0)"/><path class="cls-7" d="M129.66,65.6v0.78h-1.07v3.33a1,1,0,0,0,0,.25,0.26,0.26,0,0,0,.1.15,0.42,0.42,0,0,0,.2.07l0.34,0h0.4V71H129a3.2,3.2,0,0,1-.59,0,0.86,0.86,0,0,1-.39-0.17,0.73,0.73,0,0,1-.22-0.35,2,2,0,0,1-.07-0.6V66.38H126.8V65.6h0.91V64h0.88V65.6h1.07Z" transform="translate(0)"/></svg>